<svg width="16" height="16" viewBox="0 0 16 16" fill="none" xmlns="http://www.w3.org/2000/svg">
<path d="M8 0.5C12.1423 0.5 15.5 3.85775 15.5 8C15.5 12.1423 12.1423 15.5 8 15.5C3.85775 15.5 0.5 12.1423 0.5 8C0.5 3.85775 3.85775 0.5 8 0.5ZM8 2C4.6865 2 2 4.6865 2 8C2 11.3135 4.6865 14 8 14C11.3135 14 14 11.3135 14 8C14 4.6865 11.3135 2 8 2ZM10.8748 4.50275C11.0525 4.37825 11.294 4.39925 11.447 4.553C11.6 4.706 11.6195 4.9475 11.4943 5.123C9.85925 7.4075 8.95925 8.6315 8.79575 8.79575C8.35625 9.2345 7.64375 9.2345 7.20425 8.79575C6.7655 8.35625 6.7655 7.64375 7.20425 7.20425C7.48475 6.9245 8.708 6.02375 10.8748 4.50275ZM12.125 7.25C12.539 7.25 12.875 7.586 12.875 8C12.875 8.414 12.539 8.75 12.125 8.75C11.711 8.75 11.375 8.414 11.375 8C11.375 7.586 11.711 7.25 12.125 7.25ZM3.875 7.25C4.289 7.25 4.625 7.586 4.625 8C4.625 8.414 4.289 8.75 3.875 8.75C3.461 8.75 3.125 8.414 3.125 8C3.125 7.586 3.461 7.25 3.875 7.25ZM5.6135 4.553C5.906 4.8455 5.906 5.32025 5.6135 5.6135C5.321 5.906 4.8455 5.906 4.553 5.6135C4.2605 5.321 4.2605 4.8455 4.553 4.553C4.8455 4.2605 5.32025 4.2605 5.6135 4.553ZM8 3.125C8.414 3.125 8.75 3.461 8.75 3.875C8.75 4.289 8.414 4.625 8 4.625C7.586 4.625 7.25 4.289 7.25 3.875C7.25 3.461 7.586 3.125 8 3.125Z" fill="black"/>
</svg>
