<svg width="20" height="20" viewBox="0 0 20 20" fill="none" xmlns="http://www.w3.org/2000/svg">
<path d="M0.833985 3.58594L7.25065 0.835938L12.7507 3.58594L18.5284 1.11002C18.5981 1.08012 18.6742 1.06801 18.7498 1.07477C18.8254 1.08153 18.8981 1.10695 18.9614 1.14875C19.0248 1.19054 19.0767 1.24741 19.1127 1.31425C19.1486 1.38109 19.1674 1.4558 19.1673 1.53169V16.4193L12.7507 19.1693L7.25065 16.4193L1.4729 18.8952C1.40316 18.9251 1.32708 18.9372 1.25149 18.9304C1.17591 18.9237 1.10319 18.8983 1.03986 18.8565C0.976521 18.8147 0.924556 18.7578 0.888624 18.691C0.852692 18.6241 0.833917 18.5494 0.833985 18.4735V3.58594ZM13.6673 16.7814L17.334 15.2102V3.61619L13.6673 5.18735V16.7814ZM11.834 16.6613V5.17727L8.16732 3.34394V14.8279L11.834 16.6613ZM6.33398 14.8179V3.22385L2.66732 4.79502V16.389L6.33398 14.8179Z" fill="#1D2328"/>
</svg>
