<svg width="14" height="11" viewBox="0 0 14 11" fill="none" xmlns="http://www.w3.org/2000/svg">
<path d="M13.6801 1.71738C14 2.9425 14 5.5 14 5.5C14 5.5 14 8.0575 13.6801 9.28263C13.5023 9.95981 12.9822 10.4926 12.3235 10.6728C11.1272 11 7 11 7 11C7 11 2.8749 11 1.6765 10.6728C1.015 10.4899 0.4956 9.95775 0.3199 9.28263C2.08616e-08 8.0575 0 5.5 0 5.5C0 5.5 2.08616e-08 2.9425 0.3199 1.71738C0.4977 1.04019 1.0178 0.507375 1.6765 0.32725C2.8749 -1.22935e-07 7 0 7 0C7 0 11.1272 -1.22935e-07 12.3235 0.32725C12.985 0.510125 13.5044 1.04225 13.6801 1.71738ZM5.6 7.90625L9.8 5.5L5.6 3.09375V7.90625Z" fill="#1D2328"/>
</svg>
