<svg width="100" height="114" viewBox="0 0 100 114" fill="none" xmlns="http://www.w3.org/2000/svg">
<g clip-path="url(#clip0_905_2337)">
<path d="M65.7007 13.7891H54.5195V16.6203H65.7007V13.7891Z" fill="white"/>
<path d="M58.4326 48.646C58.3959 48.6052 58.3512 48.5726 58.3014 48.5503C58.2515 48.528 58.1976 48.5165 58.1431 48.5165C58.0886 48.5165 58.0347 48.528 57.9848 48.5503C57.935 48.5726 57.8903 48.6052 57.8536 48.646C57.6252 48.8937 57.3806 49.1413 57.1277 49.3724L56.7607 49.6943C56.6384 49.7934 56.5161 49.8924 56.3856 49.9832C55.4047 50.7405 54.3007 51.3188 53.1234 51.6919L52.7727 51.7992C52.6015 51.8487 52.4302 51.8982 52.2589 51.9313C52.1138 51.9694 51.9668 51.9997 51.8185 52.0221L51.3781 52.0963L50.8643 52.1541C50.5231 52.1912 50.18 52.2077 49.8368 52.2036C49.4881 52.2079 49.1396 52.1914 48.7929 52.1541C48.6216 52.1541 48.4503 52.1541 48.2791 52.0963C48.1078 52.0386 47.9773 52.0468 47.8305 52.0221C47.6848 52.0006 47.5404 51.9702 47.3983 51.9313C47.2249 51.896 47.0534 51.8519 46.8845 51.7992L46.4849 51.7084C44.9742 51.2385 43.5828 50.4414 42.4071 49.3724C42.1625 49.1413 41.9178 48.8937 41.6895 48.646C41.6543 48.6028 41.6101 48.568 41.56 48.5441C41.5099 48.5202 41.4553 48.5078 41.3999 48.5078C41.3446 48.5078 41.2899 48.5202 41.2399 48.5441C41.1898 48.568 41.1456 48.6028 41.1104 48.646C40.8821 48.8937 40.6456 49.133 40.4009 49.3559C38.7608 50.8415 36.7171 51.7934 34.5355 52.0878C32.3538 52.3822 30.1351 52.0055 28.1677 51.0068C27.6894 50.7653 27.2288 50.4895 26.7895 50.1813C26.7259 50.1331 26.6487 50.1071 26.5693 50.1071C26.4899 50.1071 26.4126 50.1331 26.3491 50.1813C25.9068 50.4893 25.4435 50.7652 24.9626 51.0068C24.4383 51.2731 23.8927 51.494 23.3315 51.6671L22.9809 51.7744C22.8096 51.8239 22.6383 51.8735 22.4671 51.9065C22.3194 51.9477 22.1697 51.9808 22.0185 52.0055L21.5781 52.0798L21.0643 52.1376H20.5913H20.0367C19.6881 52.1419 19.3395 52.1254 18.9928 52.0881C18.8216 52.0881 18.6503 52.0881 18.479 52.0303L18.0468 52.0055C17.8985 51.9832 17.7515 51.9529 17.6064 51.9147C17.4352 51.9147 17.2639 51.8322 17.0926 51.7827L16.7419 51.6754C16.5217 51.6093 16.3097 51.535 16.0977 51.4525C16.3015 52.377 16.5299 53.285 16.7909 54.1764L17.6064 54.391L17.8919 54.4571L18.4954 54.5561C18.6422 54.5561 18.789 54.5974 18.9358 54.6056H19.0092C19.1396 54.6056 19.262 54.6056 19.3925 54.6056H20.6973H21.0725H21.154H21.3171H21.5944C21.8962 54.6056 22.1898 54.5066 22.4834 54.4406C23.9686 54.0703 25.3588 53.3837 26.5611 52.4265C27.8445 53.4346 29.3358 54.1371 30.9243 54.4818C32.8419 54.8699 34.8272 54.7316 36.6742 54.0814C38.5212 53.4312 40.1627 52.2926 41.4285 50.7839C41.5834 50.9655 41.7384 51.1471 41.9015 51.3204L42.0157 51.436C42.1462 51.5763 42.293 51.7084 42.4316 51.8405L42.6518 52.0386C43.997 53.2077 45.604 54.0265 47.333 54.424L47.6266 54.4901L48.2301 54.5891C48.3769 54.5891 48.5237 54.6304 48.6705 54.6387H48.7439C48.8744 54.6387 48.9967 54.6387 49.1272 54.6387H50.4321C50.5544 54.6387 50.6768 54.6387 50.8073 54.6387H50.8888C51.0356 54.6387 51.1824 54.6387 51.3292 54.5891C51.631 54.5891 51.9246 54.4901 52.2182 54.424C53.9573 54.0296 55.5701 53.1978 56.9075 52.0055L57.1277 51.8074L57.5518 51.403L57.6578 51.2874L58.0738 50.8334C58.469 50.3595 58.8263 49.8544 59.1421 49.3229C58.8944 49.1096 58.6576 48.8837 58.4326 48.646Z" fill="white"/>
<path d="M41.1363 48.6469C41.173 48.6061 41.2177 48.5735 41.2676 48.5512C41.3174 48.5289 41.3713 48.5174 41.4259 48.5174C41.4804 48.5174 41.5343 48.5289 41.5841 48.5512C41.634 48.5735 41.6787 48.6061 41.7154 48.6469C41.9519 48.8946 42.1884 49.1422 42.4412 49.3733L42.8164 49.6952L43.1834 49.9841C44.1642 50.7414 45.2682 51.3197 46.4455 51.6928L46.7962 51.8001C46.9675 51.8496 47.1387 51.8991 47.31 51.9321C47.4522 51.9711 47.5965 52.0014 47.7423 52.0229C47.889 52.0229 48.0358 52.0807 48.1908 52.0972L48.7046 52.155C49.0458 52.1923 49.389 52.2088 49.7322 52.2045C50.0808 52.2088 50.4294 52.1923 50.7761 52.155C50.9473 52.155 51.1186 52.155 51.2899 52.0972L51.7303 52.0229C51.8786 52.0006 52.0256 51.9703 52.1707 51.9321C52.3419 51.9321 52.5132 51.8496 52.6845 51.8001L53.0351 51.6928C54.5462 51.2239 55.9379 50.4266 57.1129 49.3568C57.3657 49.1257 57.6103 48.8781 57.8387 48.6304C57.8739 48.5872 57.9181 48.5524 57.9682 48.5285C58.0182 48.5046 58.0729 48.4922 58.1282 48.4922C58.1836 48.4922 58.2382 48.5046 58.2883 48.5285C58.3383 48.5524 58.3825 48.5872 58.4177 48.6304C58.6419 48.8793 58.8788 49.1163 59.1273 49.3403C60.7673 50.8259 62.811 51.7778 64.9927 52.0722C67.1744 52.3666 69.3931 51.9899 71.3604 50.9911C71.8398 50.7516 72.3005 50.4756 72.7387 50.1657C72.804 50.118 72.8825 50.0924 72.963 50.0924C73.0435 50.0924 73.122 50.118 73.1873 50.1657C73.6273 50.4773 74.0908 50.7533 74.5737 50.9911C75.0972 51.2594 75.643 51.4803 76.2048 51.6515L76.5636 51.7588C76.7323 51.8125 76.9038 51.8566 77.0774 51.8909C77.2196 51.9298 77.3639 51.9602 77.5096 51.9817C77.6564 51.9817 77.8032 52.0394 77.9582 52.056L78.472 52.1137H78.9369H79.4996C79.8455 52.118 80.1913 52.1015 80.5353 52.0642C80.7066 52.0642 80.886 52.0642 81.0491 52.0064C81.2122 51.9486 81.3509 51.9569 81.4977 51.9321C81.6434 51.9106 81.7877 51.8803 81.9299 51.8413C82.1035 51.8071 82.275 51.763 82.4437 51.7093L82.7944 51.602C83.0146 51.5359 83.2348 51.4616 83.4468 51.3791C83.2348 52.3036 83.0064 53.2116 82.7536 54.103L81.9381 54.3176L81.6445 54.3837C81.4487 54.3837 81.2448 54.458 81.041 54.4827C80.8371 54.5075 80.7474 54.524 80.6006 54.5322H80.5272C80.3967 54.5322 80.2743 54.5322 80.152 54.5322H78.8798C78.7574 54.5322 78.6351 54.5322 78.5046 54.5322H78.4312H78.2681H77.9908C77.6891 54.5322 77.3873 54.4332 77.0937 54.3672C75.609 53.9952 74.2192 53.3088 73.016 52.3531C71.738 53.3904 70.2429 54.1187 68.6447 54.4827C66.7263 54.8689 64.7409 54.729 62.8939 54.0773C61.047 53.4257 59.4058 52.2861 58.1405 50.7765C57.9855 50.9581 57.8224 51.1397 57.6593 51.3131L57.5533 51.4286L57.1292 51.8331L56.9171 52.0312C55.5594 53.2067 53.9384 54.0285 52.1951 54.4249L51.9097 54.491L51.3062 54.59C51.1594 54.59 51.0126 54.6313 50.8658 54.6395H50.7842H50.4091H49.1042C48.9737 54.6395 48.8514 54.6395 48.7209 54.6395H48.6475C48.5007 54.6395 48.3539 54.6395 48.2071 54.59C47.9054 54.59 47.6036 54.491 47.31 54.4249C45.5853 54.024 43.9872 53.1926 42.6614 52.0064L42.4086 51.8413C42.2699 51.7093 42.1231 51.5772 41.9927 51.4369L41.8866 51.3213C41.7398 51.1727 41.6012 51.0242 41.4707 50.8673C41.0702 50.3975 40.7126 49.8919 40.4023 49.3568C40.6594 49.1336 40.9044 48.8966 41.1363 48.6469Z" fill="white"/>
<path d="M65.7007 18.0312H54.5195V20.8625H65.7007V18.0312Z" fill="white"/>
<path d="M76.8328 22.2812H54.5195V25.1125H76.8328V22.2812Z" fill="white"/>
<path d="M74.0437 26.5156H54.5195V29.3468H74.0437V26.5156Z" fill="white"/>
<path d="M69.1259 30.75H54.5195V33.5812H69.1259V30.75Z" fill="white"/>
<path d="M67.7477 34.9922H54.5195V37.8234H67.7477V34.9922Z" fill="white"/>
<path d="M84.1465 45.425V41.1328L15.3145 41.1328V45.425L84.1465 45.425Z" fill="white"/>
<path d="M51.9166 3.42188H47.6758V44.8997H51.9166V3.42188Z" fill="white"/>
<path d="M82.7358 10.1386L78.658 9.31321C73.2873 8.19097 67.9899 6.73546 62.7957 4.95495C58.718 3.59299 54.7463 1.99166 50.8235 0.241748C50.5008 0.0826701 50.1466 0 49.7877 0C49.4288 0 49.0747 0.0826701 48.752 0.241748C48.1648 0.522394 47.5695 0.770022 46.9741 1.06718C40.2429 3.9885 33.2843 6.34076 26.1696 8.09983C23.0786 8.86748 19.9469 9.46179 16.8316 10.1386C16.3143 10.2221 15.847 10.4992 15.5222 10.9151C15.1974 11.3309 15.0389 11.8552 15.0781 12.3838V14.3071C15.0781 23.6014 15.0781 32.9012 15.0781 42.2066C15.0693 44.5189 15.2575 46.8276 15.6409 49.1071C15.7795 49.9326 15.9345 50.758 16.1057 51.5257C16.3096 52.4501 16.538 53.3581 16.7989 54.2496C17.433 56.5153 18.2514 58.724 19.2456 60.853C19.6452 61.6784 20.0611 62.5039 20.526 63.3293C21.5632 65.1984 22.7411 66.9838 24.0491 68.6698C24.4977 69.2476 24.9707 69.8254 25.4519 70.3785C26.1206 71.1626 26.8301 71.9385 27.5723 72.6897C33.4722 78.7136 41.0145 82.8179 49.2332 84.4768C49.6113 84.5386 49.9968 84.5386 50.3749 84.4768C50.8316 84.4107 51.2883 84.2787 51.7451 84.1714C57.3737 82.8023 62.6663 80.2826 67.2975 76.7673C69.8025 74.8911 72.0897 72.734 74.1154 70.3372C74.5966 69.7759 75.0615 69.2063 75.5019 68.612C75.7221 68.3396 75.9341 68.0507 76.138 67.7866C77.1853 66.3493 78.1466 64.8498 79.0169 63.2963C79.4899 62.4708 79.9221 61.6454 80.3217 60.82C82.8441 55.554 84.234 49.8063 84.3995 43.9565L84.4729 28.5044V12.3343C84.4965 11.8171 84.3332 11.309 84.0134 10.9049C83.6937 10.5008 83.2395 10.2284 82.7358 10.1386ZM80.2483 42.0993C80.2922 48.3972 78.8169 54.6108 75.9504 60.2009C75.6161 60.8695 75.2491 61.5216 74.8494 62.1737C73.3966 64.5915 71.6874 66.8418 69.7523 68.8844C69.108 69.5695 68.4229 70.2464 67.7134 70.915C67.3709 71.2369 67.0202 71.5506 66.6695 71.856C61.9041 75.9424 56.2091 78.7648 50.0977 80.069C49.8857 80.1184 49.6654 80.1184 49.4534 80.069C43.3501 78.7316 37.665 75.8971 32.8978 71.8147C31.8036 70.8771 30.7608 69.8796 29.7743 68.8266L29.1789 68.1746C27.5019 66.3107 26.0104 64.2841 24.726 62.1242C24.3427 61.4803 23.9757 60.82 23.6332 60.1514C22.7105 58.3639 21.9332 56.5032 21.3089 54.588C21.0479 53.7626 20.8114 52.9867 20.5994 52.1777C20.2813 50.9313 20.0122 49.7015 19.7838 48.356C19.4586 46.2869 19.3004 44.1944 19.3108 42.0993V14.0347C21.8961 13.4486 24.4243 12.9203 26.9362 12.3013C32.504 10.929 37.9793 9.19761 43.3286 7.11757C45.4001 6.29214 47.4064 5.40893 49.5105 4.57525C49.7057 4.50538 49.9187 4.50538 50.114 4.57525C54.4037 6.43247 58.7506 8.11634 63.1627 9.5691C68.6341 11.3435 74.2062 12.7824 79.8487 13.8778L80.2402 13.9769V14.5134C80.2565 23.7417 80.2973 32.9122 80.2483 42.0993Z" fill="white"/>
<path d="M68.041 52.1104C68.3428 52.0691 68.6364 52.0113 68.9218 51.9453C68.6364 52.0031 68.3428 52.0691 68.041 52.1104Z" fill="white"/>
<path d="M69.9492 51.6543C70.1776 51.5718 70.4141 51.4892 70.6343 51.3984L69.9492 51.6543Z" fill="white"/>
<path d="M82.8255 51.7084L82.4749 51.8157C82.3062 51.8694 82.1346 51.9135 81.9611 51.9478C81.8263 51.9747 81.6902 51.994 81.5533 52.0055C81.4065 52.0055 81.2597 52.0633 81.1047 52.0798C80.9498 52.0963 80.7622 52.1294 80.591 52.1376C80.247 52.1749 79.9011 52.1914 79.5552 52.1871H78.9925H78.5276L78.0138 52.1294C77.8589 52.1294 77.7121 52.0798 77.5653 52.0551C77.4195 52.0336 77.2752 52.0032 77.133 51.9643C76.9595 51.93 76.7879 51.8859 76.6193 51.8322L76.2604 51.7249C75.6986 51.5537 75.1528 51.3328 74.6293 51.0646C74.1465 50.8267 73.6829 50.5507 73.2429 50.2391C73.1776 50.1914 73.0991 50.1658 73.0186 50.1658C72.9381 50.1658 72.8596 50.1914 72.7943 50.2391C72.3561 50.549 71.8954 50.825 71.4161 51.0646C69.4487 52.0633 67.23 52.44 65.0483 52.1456C62.8667 51.8512 60.823 50.8993 59.1829 49.4137C58.9344 49.1897 58.6976 48.9527 58.4734 48.7038C58.4382 48.6606 58.394 48.6258 58.3439 48.6019C58.2939 48.578 58.2392 48.5656 58.1839 48.5656C58.1285 48.5656 58.0739 48.578 58.0238 48.6019C57.9737 48.6258 57.9295 48.6606 57.8943 48.7038C57.7068 48.9102 57.511 49.1 57.3071 49.2981L57.1685 49.4302L56.8015 49.7521L56.4834 49.9997L56.41 50.0575C56.1735 50.2391 55.9289 50.4125 55.6842 50.5693L55.5945 50.6271C55.3825 50.7591 55.1704 50.883 54.9502 50.9985L54.8116 51.0728C54.5832 51.1966 54.3467 51.3039 54.1102 51.403L53.89 51.4938C53.6372 51.5928 53.3844 51.6919 53.1316 51.7662L52.7809 51.8735C52.6096 51.923 52.4383 51.9725 52.2671 52.0055C52.122 52.0437 51.975 52.074 51.8267 52.0963L51.3863 52.1706L50.8725 52.2284H50.8236C50.4973 52.2284 50.163 52.2284 49.8368 52.2284C49.5105 52.2284 49.1762 52.2284 48.8499 52.2284H48.801L48.2872 52.1706C48.1323 52.1706 47.9855 52.1211 47.8387 52.0963C47.6929 52.0748 47.5486 52.0445 47.4064 52.0055C47.2352 52.0055 47.0639 51.923 46.8926 51.8735L46.4849 51.7084C46.2275 51.6313 45.9743 51.5403 45.7264 51.436L45.4981 51.3452C45.2617 51.2469 45.0303 51.1367 44.8048 51.015L44.6662 50.9407C44.446 50.8252 44.2258 50.7014 44.0138 50.5693L43.9322 50.5115C43.6794 50.3547 43.4347 50.1813 43.1982 49.9997L43.1248 49.942L42.8149 49.6943L42.4071 49.3724C42.365 49.3243 42.3186 49.28 42.2685 49.2404C42.0728 49.0423 41.8689 48.8524 41.6895 48.646C41.6543 48.6028 41.6101 48.568 41.56 48.5441C41.5099 48.5202 41.4553 48.5078 41.3999 48.5078C41.3446 48.5078 41.2899 48.5202 41.2399 48.5441C41.1898 48.568 41.1456 48.6028 41.1104 48.646C40.8821 48.8937 40.6456 49.133 40.4009 49.3559C38.7608 50.8415 36.7171 51.7934 34.5355 52.0878C32.3538 52.3822 30.1351 52.0055 28.1677 51.0068C27.6894 50.7653 27.2288 50.4895 26.7895 50.1813C26.7259 50.1331 26.6487 50.1071 26.5693 50.1071C26.4898 50.1071 26.4126 50.1331 26.3491 50.1813C25.9068 50.4893 25.4435 50.7652 24.9626 51.0068C24.4383 51.2731 23.8927 51.494 23.3315 51.6671L22.9809 51.7744C22.8096 51.8239 22.6383 51.8735 22.4671 51.9065C22.3194 51.9477 22.1697 51.9808 22.0185 52.0055L21.5781 52.0798L21.0643 52.1376H20.5913H20.0367C19.6881 52.1419 19.3395 52.1254 18.9928 52.0881C18.8216 52.0881 18.6503 52.0881 18.479 52.0303L18.0468 52.0055C17.8985 51.9832 17.7515 51.9529 17.6064 51.9147C17.4352 51.9147 17.2639 51.8322 17.0926 51.7827L16.7419 51.6754C16.5217 51.6093 16.3097 51.535 16.0977 51.4525C16.3015 52.377 16.5299 53.285 16.7909 54.1764L17.6064 54.391L17.8919 54.4571L18.4954 54.5561C18.6422 54.5561 18.789 54.5974 18.9358 54.6056H19.0092C19.1396 54.6056 19.262 54.6056 19.3925 54.6056H20.6973H21.0725H21.154H21.3171H21.5944C21.8962 54.6056 22.1898 54.5066 22.4834 54.4406C23.9686 54.0703 25.3588 53.3837 26.5611 52.4265C27.8445 53.4346 29.3358 54.1371 30.9243 54.4818C32.8419 54.8699 34.8272 54.7316 36.6742 54.0814C38.5212 53.4312 40.1627 52.2926 41.4285 50.7839L41.4774 50.8417L41.7792 51.1801C41.8186 51.2145 41.8542 51.2533 41.8852 51.2957L41.9994 51.4112C42.1299 51.5516 42.2766 51.6836 42.4153 51.8157L42.6355 52.0138L42.6844 52.0551C44.0043 53.2196 45.5912 54.0312 47.3004 54.4158L47.594 54.4818L48.1975 54.5809C48.3443 54.5809 48.4911 54.6222 48.6379 54.6304H48.7113C48.8418 54.6304 48.9641 54.6304 49.0946 54.6304H50.3995H50.7746H50.8562C51.003 54.6304 51.1498 54.6304 51.2966 54.5809L51.9001 54.4818L52.1855 54.4158C53.8895 54.0371 55.4733 53.2342 56.7934 52.0798L56.8504 52.0386L57.0625 51.8405L57.4866 51.436L57.5926 51.3204L57.6986 51.2049L58.0085 50.8664L58.0656 50.8087C59.3412 52.3248 60.9962 53.4657 62.8572 54.112C64.7182 54.7582 66.7167 54.886 68.6432 54.4818C70.2372 54.1326 71.7319 53.4213 73.0145 52.4017C74.2178 53.3574 75.6076 54.0439 77.0923 54.4158C77.3859 54.4818 77.6876 54.5396 77.9894 54.5809H78.2667H78.4298H78.5032C78.6337 54.5809 78.756 54.5809 78.8783 54.5809H80.1913C80.3137 54.5809 80.436 54.5809 80.5665 54.5809H80.6399C80.7867 54.5809 80.9335 54.5809 81.0803 54.5314C81.2271 54.4818 81.4881 54.4653 81.6838 54.4323L81.9774 54.3663L82.7929 54.1517C83.0457 53.2602 83.2741 52.3522 83.4861 51.4277C83.2659 51.5681 83.0457 51.6424 82.8255 51.7084Z" fill="white"/>
<path d="M80.3219 60.7675C79.9223 61.5929 79.5064 62.4183 79.017 63.2438H78.8784H78.5033H78.4217H78.2667H77.9813C77.6877 63.2438 77.386 63.1447 77.0924 63.0787C76.313 62.9016 75.5593 62.6242 74.8496 62.2532C74.2052 61.9145 73.5912 61.5195 73.0146 61.0729C71.732 62.0924 70.2373 62.8037 68.6433 63.153C67.9336 63.29 67.2128 63.3591 66.4903 63.3593C64.9007 63.3622 63.3298 63.0135 61.8872 62.3377C60.4447 61.6618 59.1655 60.6752 58.1391 59.4468L58.082 59.5046L57.7721 59.8347L57.6661 59.9585L57.5601 60.0741L57.136 60.4786L56.9158 60.6767C56.9158 60.6767 56.9158 60.6767 56.8668 60.6767C55.5441 61.8271 53.9614 62.6294 52.259 63.0126L51.9654 63.0787L51.3701 63.1777L50.9297 63.2272H50.8481H50.473H49.1681H48.7848H48.7114L48.271 63.1777L47.6675 63.0787L47.3739 63.0126C45.6715 62.6294 44.0888 61.8271 42.7661 60.6767H42.7171L42.4072 60.4125C42.2686 60.2805 42.1218 60.1484 41.9913 60.0081L41.8771 59.8925L41.7711 59.7687L41.4694 59.4385L41.4204 59.3807C40.1536 60.8852 38.5126 62.0197 36.6673 62.6669C34.822 63.3141 32.8393 63.4506 30.9244 63.0622C29.3309 62.7112 27.8366 62.0001 26.553 60.9821C25.9784 61.425 25.3672 61.8171 24.7262 62.1542C24.0157 62.5299 23.2587 62.8075 22.4753 62.9796C22.1817 63.0457 21.8881 63.1034 21.5864 63.1447H21.3091H21.146H21.0644H20.6893H20.5343C20.0776 62.3193 19.6535 61.4938 19.2539 60.6684C19.5149 60.6684 19.7759 60.6684 20.0695 60.6684H20.624H21.097L21.6108 60.6106C21.7588 60.5939 21.9059 60.5691 22.0512 60.5363C22.1995 60.514 22.3465 60.4837 22.4916 60.4456C22.6629 60.4456 22.8341 60.363 23.0054 60.3135L23.3561 60.2062L23.6578 60.1071C24.1104 59.9507 24.5518 59.7632 24.979 59.5458C25.46 59.3093 25.9209 59.0332 26.3573 58.7204C26.4226 58.6727 26.5011 58.6471 26.5816 58.6471C26.6621 58.6471 26.7406 58.6727 26.8059 58.7204C27.2433 59.0315 27.7042 59.3075 28.1841 59.5458C30.1501 60.5502 32.3701 60.9301 34.553 60.6355C36.7359 60.3409 38.78 59.3856 40.4173 57.895C40.662 57.6721 40.8985 57.4327 41.1268 57.1851C41.162 57.1419 41.2062 57.1071 41.2563 57.0832C41.3063 57.0593 41.361 57.0469 41.4163 57.0469C41.4717 57.0469 41.5263 57.0593 41.5764 57.0832C41.6265 57.1071 41.6707 57.1419 41.7059 57.1851C41.8853 57.3915 42.0892 57.5813 42.2849 57.7794L42.4235 57.9115L42.7987 58.2334L43.1086 58.481L43.2228 58.6048C43.462 58.7864 43.7067 58.9598 43.9568 59.1249L44.0465 59.1744C44.2504 59.3065 44.4706 59.4303 44.6908 59.5458L44.8294 59.6201C45.0549 59.7418 45.2862 59.852 45.5226 59.9503L45.751 60.0411C46.0038 60.1401 46.2484 60.2392 46.5094 60.3135L46.8601 60.4208C47.0291 60.4735 47.2005 60.5176 47.3739 60.5529C47.5161 60.5918 47.6604 60.6222 47.8061 60.6437C47.9541 60.6771 48.1039 60.7019 48.2547 60.7179L48.7685 60.7757H48.8174C49.1453 60.8089 49.4747 60.8254 49.8042 60.8253C50.1311 60.8254 50.4577 60.8089 50.7829 60.7757H50.84L51.3538 60.7179C51.5018 60.7012 51.6488 60.6764 51.7942 60.6437C51.9424 60.6213 52.0895 60.591 52.2345 60.5529C52.4058 60.5529 52.5771 60.4703 52.7483 60.4208L53.099 60.3135C53.3518 60.2392 53.6047 60.1401 53.8493 60.0411L54.0777 59.9503C54.3142 59.8512 54.5507 59.7439 54.779 59.6201L54.9177 59.5458C55.1379 59.4303 55.3499 59.3065 55.562 59.1744C55.5901 59.1548 55.6201 59.1382 55.6517 59.1249C55.8963 58.9598 56.141 58.7864 56.3775 58.6048L56.4509 58.5471L56.769 58.2994L57.136 57.9775L57.2746 57.8455C57.4785 57.6473 57.6742 57.4575 57.8618 57.2511C57.897 57.2079 57.9412 57.1731 57.9913 57.1492C58.0413 57.1253 58.096 57.1129 58.1513 57.1129C58.2067 57.1129 58.2613 57.1253 58.3114 57.1492C58.3614 57.1731 58.4057 57.2079 58.4408 57.2511C58.663 57.5021 58.8999 57.7391 59.1504 57.961C60.7877 59.4517 62.8317 60.4069 65.0147 60.7015C67.1976 60.9961 69.4176 60.6163 71.3835 59.6119C71.8635 59.3735 72.3243 59.0975 72.7618 58.7864C72.8271 58.7388 72.9056 58.7131 72.9861 58.7131C73.0666 58.7131 73.1451 58.7388 73.2104 58.7864C73.6467 59.0992 74.1077 59.3753 74.5886 59.6119C75.022 59.8305 75.4687 60.0207 75.9261 60.1814L76.2116 60.2722L76.5623 60.3795C76.7335 60.429 76.9048 60.4786 77.076 60.5116C77.2211 60.5498 77.3682 60.5801 77.5164 60.6024C77.6618 60.6352 77.8088 60.66 77.9568 60.6767L78.4706 60.7345H78.9436H79.4982C79.8 60.8005 80.0609 60.7922 80.3219 60.7675Z" fill="white"/>
<path d="M75.5032 68.594C75.0628 69.1883 74.5979 69.7579 74.1167 70.3192C73.7355 70.0879 73.3678 69.8344 73.0158 69.5598C71.7331 70.5793 70.2384 71.2906 68.6444 71.6398C67.9934 71.7644 67.3332 71.8335 66.6708 71.8462H66.4914C64.9018 71.849 63.3309 71.5004 61.8884 70.8245C60.4459 70.1487 59.1667 69.1621 58.1402 67.9337L58.0831 67.9914C57.9771 68.107 57.8711 68.2143 57.7732 68.3299C57.7359 68.3665 57.7005 68.405 57.6672 68.4454L57.5612 68.561L57.1371 68.9655L56.9169 69.1636C56.9169 69.1636 56.9169 69.1636 56.868 69.2048C55.5452 70.3552 53.9625 71.1576 52.2601 71.5408L51.9665 71.6068C51.7708 71.6068 51.5669 71.6811 51.3712 71.7059L50.9308 71.7554H50.8492H50.4741H49.1692H48.7859H48.7125L48.2721 71.7059C48.0764 71.7059 47.8644 71.6481 47.6686 71.6068L47.375 71.5408C45.6726 71.1576 44.0899 70.3552 42.7672 69.2048L42.7183 69.1636L42.4084 68.9902C42.2697 68.8581 42.1229 68.7261 41.9924 68.5858C41.9524 68.5493 41.9142 68.5107 41.8783 68.4702C41.8473 68.4278 41.8117 68.389 41.7722 68.3546L41.4705 68.0162L41.4215 67.9584C40.37 69.1976 39.0606 70.1859 37.5871 70.8523C36.1136 71.5188 34.5127 71.8469 32.8991 71.8132C32.2366 71.8013 31.5764 71.7322 30.9255 71.6068C29.3321 71.2559 27.8377 70.5448 26.5542 69.5267C26.2048 69.7987 25.8399 70.0495 25.4613 70.2779C24.9802 69.7248 24.5071 69.147 24.0586 68.5692C24.3648 68.4514 24.6643 68.3163 24.9557 68.1648C25.4382 67.9312 25.8994 67.655 26.334 67.3394C26.3993 67.2917 26.4777 67.266 26.5582 67.266C26.6388 67.266 26.7172 67.2917 26.7825 67.3394C27.222 67.6473 27.6826 67.9231 28.1608 68.1648C28.6887 68.423 29.2337 68.6437 29.7919 68.8251C31.6129 69.4107 33.5537 69.5031 35.421 69.0933C37.2883 68.6834 39.0169 67.7856 40.4347 66.4892C40.6794 66.2663 40.9159 66.0269 41.1443 65.7793C41.1795 65.7361 41.2237 65.7013 41.2737 65.6774C41.3238 65.6535 41.3784 65.6411 41.4338 65.6411C41.4891 65.6411 41.5438 65.6535 41.5938 65.6774C41.6439 65.7013 41.6881 65.7361 41.7233 65.7793C41.9027 65.9857 42.1066 66.1838 42.3023 66.3736L42.441 66.5057L42.8161 66.8276C42.914 66.9184 43.02 66.9927 43.126 67.0752L43.1994 67.133C43.4359 67.3063 43.6806 67.4797 43.9334 67.6448L44.0394 67.686C44.2433 67.8181 44.4635 67.9419 44.6837 68.0575L44.8224 68.1318C45.0478 68.2535 45.2792 68.3637 45.5156 68.4619L45.7439 68.5527C45.9968 68.6518 46.2414 68.7508 46.5024 68.8334C46.6166 68.8334 46.7307 68.9077 46.8531 68.9324C47.022 68.9852 47.1935 69.0292 47.3669 69.0645C47.509 69.1035 47.6534 69.1338 47.7991 69.1553C47.9471 69.1887 48.0969 69.2136 48.2477 69.2296C48.4189 69.2296 48.582 69.2791 48.7615 69.2874H48.8104C49.1383 69.3205 49.4676 69.3371 49.7972 69.3369C50.124 69.3371 50.4507 69.3205 50.7758 69.2874H50.8329C51.0042 69.2874 51.1755 69.2874 51.3467 69.2296C51.4947 69.2129 51.6418 69.1881 51.7871 69.1553C51.9354 69.133 52.0824 69.1027 52.2275 69.0645C52.3988 69.0645 52.57 68.982 52.7413 68.9324L53.092 68.8334C53.3448 68.7508 53.5976 68.6518 53.8423 68.5527L54.0707 68.4619C54.3072 68.3629 54.5437 68.2556 54.772 68.1318L54.9107 68.0575C55.1309 67.9419 55.3429 67.8181 55.5549 67.686L55.6447 67.6365L56.3705 67.1247L56.4439 67.067C56.5499 66.9844 56.6559 66.9101 56.7619 66.8193L57.1289 66.4974L57.2676 66.3654C57.4742 66.1783 57.6699 65.9802 57.8548 65.771C57.89 65.7278 57.9342 65.693 57.9842 65.6691C58.0343 65.6452 58.089 65.6328 58.1443 65.6328C58.1996 65.6328 58.2543 65.6452 58.3044 65.6691C58.3544 65.693 58.3986 65.7278 58.4338 65.771C58.6559 66.022 58.8929 66.259 59.1433 66.4809C61.1547 68.3224 63.7711 69.3405 66.4832 69.3369C67.5894 69.3354 68.6891 69.1656 69.7454 68.8334C70.3051 68.6496 70.8504 68.4233 71.3765 68.1565C71.8547 67.9149 72.3153 67.639 72.7548 67.3311C72.8201 67.2834 72.8985 67.2578 72.9791 67.2578C73.0596 67.2578 73.138 67.2834 73.2033 67.3311C73.6379 67.6467 74.0991 67.9229 74.5816 68.1565C74.8808 68.3189 75.1885 68.465 75.5032 68.594Z" fill="white"/>
<path d="M25.2001 21.6882C24.7917 21.7024 24.393 21.561 24.0828 21.2919C23.9197 21.1238 23.7928 20.9233 23.71 20.7031C23.6272 20.483 23.5903 20.2478 23.6016 20.0125V16.3724C23.5903 16.1371 23.6272 15.902 23.71 15.6818C23.7928 15.4616 23.9197 15.2611 24.0828 15.093C24.3991 14.8308 24.7953 14.6875 25.2041 14.6875C25.613 14.6875 26.0092 14.8308 26.3255 15.093C26.4885 15.2611 26.6154 15.4616 26.6982 15.6818C26.781 15.902 26.818 16.1371 26.8067 16.3724V20.0125C26.818 20.2478 26.781 20.483 26.6982 20.7031C26.6154 20.9233 26.4885 21.1238 26.3255 21.2919C26.0132 21.5629 25.6112 21.7045 25.2001 21.6882ZM25.2001 15.7698C25.0596 15.7549 24.9191 15.7964 24.8086 15.8854C24.7531 15.9524 24.7115 16.0301 24.6863 16.1138C24.6611 16.1975 24.6527 16.2854 24.6618 16.3724V20.0125C24.6527 20.0995 24.6611 20.1875 24.6863 20.2711C24.7115 20.3548 24.7531 20.4325 24.8086 20.4995C24.9209 20.5848 25.06 20.6259 25.2001 20.6151C25.3427 20.6272 25.4848 20.5861 25.5997 20.4995C25.6564 20.4333 25.6988 20.3557 25.7241 20.2718C25.7494 20.1879 25.757 20.0996 25.7465 20.0125V16.3724C25.757 16.2853 25.7494 16.197 25.7241 16.1131C25.6988 16.0293 25.6564 15.9517 25.5997 15.8854C25.4867 15.7951 25.3431 15.7536 25.2001 15.7698Z" fill="white"/>
<path d="M31.3418 14.7656H31.9535V21.6084H30.8933V16.6559L29.8086 17.6546V16.1854L31.3418 14.7656Z" fill="white"/>
<path d="M36.6995 21.6882C36.2884 21.7045 35.8864 21.5629 35.574 21.2919C35.4066 21.1259 35.2752 20.9264 35.1881 20.7061C35.1011 20.4858 35.0603 20.2496 35.0684 20.0125V16.3724C35.0571 16.1371 35.094 15.902 35.1768 15.6818C35.2596 15.4616 35.3865 15.2611 35.5496 15.093C35.8659 14.8308 36.2621 14.6875 36.6709 14.6875C37.0798 14.6875 37.476 14.8308 37.7923 15.093C37.9553 15.2611 38.0822 15.4616 38.165 15.6818C38.2478 15.902 38.2848 16.1371 38.2735 16.3724V20.0125C38.2848 20.2478 38.2478 20.483 38.165 20.7031C38.0822 20.9233 37.9553 21.1238 37.7923 21.2919C37.4884 21.5552 37.0994 21.6962 36.6995 21.6882ZM36.6995 15.7698C36.5564 15.7536 36.4128 15.7951 36.2999 15.8854C36.2444 15.9524 36.2028 16.0301 36.1776 16.1138C36.1523 16.1975 36.144 16.2854 36.1531 16.3724V20.0125C36.144 20.0995 36.1523 20.1875 36.1776 20.2711C36.2028 20.3548 36.2444 20.4325 36.2999 20.4995C36.4112 20.5949 36.5537 20.645 36.6995 20.6399C36.8398 20.6539 36.9801 20.6125 37.0909 20.5243C37.1477 20.458 37.1901 20.3804 37.2154 20.2965C37.2406 20.2127 37.2483 20.1243 37.2377 20.0373V16.3724C37.2483 16.2853 37.2406 16.197 37.2154 16.1131C37.1901 16.0293 37.1477 15.9517 37.0909 15.8854C37.0369 15.8401 36.9743 15.8065 36.907 15.7866C36.8397 15.7667 36.7691 15.761 36.6995 15.7698Z" fill="white"/>
<path d="M42.8895 21.6882C42.4812 21.7024 42.0825 21.561 41.7722 21.2919C41.6092 21.1238 41.4823 20.9233 41.3995 20.7031C41.3167 20.483 41.2798 20.2478 41.291 20.0125V16.3724C41.2798 16.1371 41.3167 15.902 41.3995 15.6818C41.4823 15.4616 41.6092 15.2611 41.7722 15.093C42.0885 14.8308 42.4847 14.6875 42.8936 14.6875C43.3024 14.6875 43.6987 14.8308 44.015 15.093C44.178 15.2611 44.3049 15.4616 44.3877 15.6818C44.4705 15.902 44.5074 16.1371 44.4961 16.3724V20.0125C44.5106 20.2461 44.4776 20.4801 44.399 20.7002C44.3204 20.9203 44.1981 21.1217 44.0394 21.2919C43.7208 21.5689 43.3089 21.7109 42.8895 21.6882ZM42.8895 15.7698C42.7491 15.7549 42.6085 15.7964 42.4981 15.8854C42.4426 15.9524 42.401 16.0301 42.3757 16.1138C42.3505 16.1975 42.3422 16.2854 42.3513 16.3724V20.0125C42.3422 20.0995 42.3505 20.1875 42.3757 20.2711C42.401 20.3548 42.4426 20.4325 42.4981 20.4995C42.6191 20.5801 42.7609 20.6231 42.9058 20.6231C43.0508 20.6231 43.1925 20.5801 43.3136 20.4995C43.3703 20.4333 43.4127 20.3557 43.438 20.2718C43.4633 20.1879 43.4709 20.0996 43.4604 20.0125V16.3724C43.4709 16.2853 43.4633 16.197 43.438 16.1131C43.4127 16.0293 43.3703 15.9517 43.3136 15.8854C43.2552 15.8366 43.1871 15.801 43.1139 15.7811C43.0408 15.7611 42.9643 15.7573 42.8895 15.7698Z" fill="white"/>
<path d="M25.2002 30.3288C24.7898 30.3475 24.3885 30.2023 24.0829 29.9243C23.9195 29.7564 23.7923 29.556 23.7095 29.3358C23.6267 29.1155 23.59 28.8803 23.6018 28.6449V25.013C23.59 24.7776 23.6267 24.5424 23.7095 24.3221C23.7923 24.1019 23.9195 23.9015 24.0829 23.7336C24.3992 23.4714 24.7955 23.3281 25.2043 23.3281C25.6132 23.3281 26.0094 23.4714 26.3257 23.7336C26.4891 23.9015 26.6163 24.1019 26.6991 24.3221C26.7819 24.5424 26.8186 24.7776 26.8068 25.013V28.6449C26.8186 28.8803 26.7819 29.1155 26.6991 29.3358C26.6163 29.556 26.4891 29.7564 26.3257 29.9243C26.0176 30.2035 25.6133 30.3488 25.2002 30.3288ZM25.2002 24.4022C25.0587 24.3896 24.918 24.4341 24.8088 24.526C24.7525 24.5926 24.7103 24.6702 24.6851 24.754C24.6598 24.8378 24.6519 24.926 24.662 25.013V28.6449C24.6519 28.7319 24.6598 28.8201 24.6851 28.9039C24.7103 28.9877 24.7525 29.0654 24.8088 29.1319C24.918 29.2238 25.0587 29.2684 25.2002 29.2557C25.3444 29.2697 25.4881 29.2251 25.5998 29.1319C25.6566 29.0656 25.699 28.988 25.7243 28.9042C25.7495 28.8203 25.7572 28.732 25.7466 28.6449V25.013C25.7572 24.926 25.7495 24.8376 25.7243 24.7538C25.699 24.6699 25.6566 24.5923 25.5998 24.526C25.4881 24.4328 25.3444 24.3882 25.2002 24.4022Z" fill="white"/>
<path d="M31.4397 30.3297C31.2363 30.3399 31.033 30.3094 30.8413 30.24C30.6496 30.1706 30.4732 30.0636 30.3224 29.9252C30.1564 29.7592 30.0276 29.5591 29.9446 29.3384C29.8616 29.1177 29.8263 28.8815 29.8412 28.6458V25.0139C29.8263 24.7782 29.8616 24.5421 29.9446 24.3213C30.0276 24.1006 30.1564 23.9005 30.3224 23.7345C30.4732 23.5961 30.6496 23.4891 30.8413 23.4197C31.033 23.3503 31.2363 23.3199 31.4397 23.33C31.8528 23.31 32.257 23.4553 32.5651 23.7345C32.7286 23.9024 32.8557 24.1028 32.9386 24.323C33.0214 24.5433 33.0581 24.7786 33.0463 25.0139V28.6458C33.0581 28.8812 33.0214 29.1164 32.9386 29.3367C32.8557 29.5569 32.7286 29.7574 32.5651 29.9252C32.257 30.2044 31.8528 30.3497 31.4397 30.3297ZM31.4397 24.4031C31.2982 24.3905 31.1574 24.435 31.0482 24.5269C30.9919 24.5935 30.9498 24.6711 30.9245 24.7549C30.8993 24.8387 30.8914 24.9269 30.9014 25.0139V28.6458C30.8914 28.7328 30.8993 28.821 30.9245 28.9048C30.9498 28.9886 30.9919 29.0663 31.0482 29.1328C31.1574 29.2247 31.2982 29.2693 31.4397 29.2566C31.5838 29.2706 31.7276 29.226 31.8393 29.1328C31.896 29.0665 31.9384 28.9889 31.9637 28.9051C31.989 28.8212 31.9966 28.7329 31.9861 28.6458V25.0139C31.9966 24.9269 31.989 24.8385 31.9637 24.7547C31.9384 24.6708 31.896 24.5932 31.8393 24.5269C31.7276 24.4337 31.5838 24.3891 31.4397 24.4031Z" fill="white"/>
<path d="M37.5801 23.4141H38.1918V30.2486H37.1315V25.296L36.0469 26.2866V24.8255L37.5801 23.4141Z" fill="white"/>
<path d="M42.8164 23.4141H43.4281V30.2486H42.3597V25.296L41.2832 26.2948V24.8255L42.8164 23.4141Z" fill="white"/>
<path d="M25.2002 39.2203C24.7875 39.2346 24.3859 39.0833 24.0829 38.7993C23.9195 38.6315 23.7923 38.431 23.7095 38.2108C23.6267 37.9905 23.59 37.7553 23.6018 37.5199V33.888C23.59 33.6527 23.6267 33.4174 23.7095 33.1971C23.7923 32.9769 23.9195 32.7765 24.0829 32.6086C24.3992 32.3464 24.7955 32.2031 25.2043 32.2031C25.6132 32.2031 26.0094 32.3464 26.3257 32.6086C26.4891 32.7765 26.6163 32.9769 26.6991 33.1971C26.7819 33.4174 26.8186 33.6527 26.8068 33.888V37.5199C26.8186 37.7553 26.7819 37.9905 26.6991 38.2108C26.6163 38.431 26.4891 38.6315 26.3257 38.7993C26.0202 39.0845 25.6156 39.2359 25.2002 39.2203ZM25.2002 33.2937C25.0587 33.2811 24.918 33.3256 24.8088 33.4175C24.7525 33.4841 24.7103 33.5617 24.6851 33.6455C24.6598 33.7293 24.6519 33.8175 24.662 33.9045V37.5364C24.6519 37.6234 24.6598 37.7116 24.6851 37.7954C24.7103 37.8793 24.7525 37.9569 24.8088 38.0234C24.918 38.1154 25.0587 38.1599 25.2002 38.1472C25.3444 38.1612 25.4881 38.1167 25.5998 38.0234C25.6566 37.9571 25.699 37.8795 25.7243 37.7957C25.7495 37.7118 25.7572 37.6235 25.7466 37.5364V33.9045C25.7572 33.8175 25.7495 33.7292 25.7243 33.6453C25.699 33.5614 25.6566 33.4838 25.5998 33.4175C25.4881 33.3243 25.3444 33.2798 25.2002 33.2937Z" fill="white"/>
<path d="M31.3418 32.3047H31.9535V39.1392H30.8933V34.1867L29.8086 35.1854V33.7162L31.3418 32.3047Z" fill="white"/>
<path d="M36.6997 39.2194C36.4873 39.2327 36.2744 39.2022 36.0739 39.1299C35.8735 39.0575 35.6896 38.9448 35.5334 38.7984C35.375 38.6311 35.2521 38.4328 35.1721 38.2156C35.0922 37.9984 35.0569 37.767 35.0686 37.5355V33.9036C35.0568 33.6683 35.0935 33.433 35.1763 33.2128C35.2592 32.9925 35.3863 32.7921 35.5498 32.6242C35.866 32.362 36.2623 32.2188 36.6711 32.2188C37.08 32.2188 37.4762 32.362 37.7925 32.6242C37.9559 32.7921 38.0831 32.9925 38.1659 33.2128C38.2488 33.433 38.2854 33.6683 38.2737 33.9036V37.5355C38.281 37.7693 38.2407 38.0022 38.1551 38.2195C38.0695 38.4368 37.9405 38.6339 37.7762 38.7984C37.4834 39.0724 37.0984 39.2229 36.6997 39.2194ZM36.6997 33.2928C36.5555 33.2789 36.4118 33.3234 36.3001 33.4166C36.2437 33.4832 36.2016 33.5608 36.1764 33.6446C36.1511 33.7284 36.1432 33.8166 36.1533 33.9036V37.5355C36.1432 37.6226 36.1511 37.7108 36.1764 37.7946C36.2016 37.8784 36.2437 37.956 36.3001 38.0225C36.4118 38.1158 36.5555 38.1603 36.6997 38.1463C36.7698 38.154 36.8408 38.147 36.9081 38.1257C36.9755 38.1044 37.0378 38.0693 37.0911 38.0225C37.1479 37.9563 37.1903 37.8787 37.2155 37.7948C37.2408 37.7109 37.2485 37.6226 37.2379 37.5355V33.9036C37.2485 33.8166 37.2408 33.7283 37.2155 33.6444C37.1903 33.5605 37.1479 33.4829 37.0911 33.4166C37.0378 33.3699 36.9755 33.3348 36.9081 33.3135C36.8408 33.2922 36.7698 33.2851 36.6997 33.2928Z" fill="white"/>
<path d="M42.7992 32.3047H43.4027V39.1392H42.3425V34.1867L41.2578 35.1854V33.7162L42.7992 32.3047Z" fill="white"/>
<path d="M4.5829 96.1849C6.07831 95.3437 7.76548 94.9139 9.47617 94.9385C11.1869 94.9139 12.874 95.3437 14.3694 96.1849C15.7807 96.9859 16.9463 98.1655 17.7376 99.5939C18.535 101.093 18.9523 102.769 18.9523 104.472C18.9523 106.175 18.535 107.851 17.7376 109.35C16.9439 110.777 15.7789 111.956 14.3694 112.76C12.874 113.601 11.1869 114.03 9.47617 114.006C7.76548 114.03 6.07831 113.601 4.5829 112.76C3.1734 111.956 2.00846 110.777 1.2147 109.35C0.417366 107.851 0 106.175 0 104.472C0 102.769 0.417366 101.093 1.2147 99.5939C2.00609 98.1655 3.17161 96.9859 4.5829 96.1849ZM13.6028 107.18C14.0188 106.334 14.2286 105.4 14.2145 104.456C14.2735 103.051 13.791 101.677 12.8688 100.626C12.4423 100.143 11.9172 99.7607 11.3299 99.5041C10.7427 99.2476 10.1074 99.1233 9.46802 99.1399C8.82594 99.1236 8.18809 99.2496 7.59921 99.5091C7.01032 99.7686 6.48465 100.155 6.05904 100.642C5.18842 101.718 4.71267 103.065 4.71267 104.456C4.71267 105.846 5.18842 107.194 6.05904 108.269C6.48276 108.759 7.00769 109.15 7.59674 109.412C8.18579 109.675 8.82459 109.803 9.46802 109.788C10.332 109.805 11.1823 109.567 11.9147 109.103C12.6405 108.63 13.2244 107.965 13.6028 107.18Z" fill="white"/>
<path d="M25.2826 90.697V102.732L30.9261 95.3689H36.6349L29.4663 104.044L37.4342 113.561H31.4562L25.2826 105.827V113.561H20.5605V89.3516L25.2826 90.697Z" fill="white"/>
<path d="M43.4852 110.269C44.0543 110.299 44.62 110.164 45.1163 109.881C45.31 109.759 45.4676 109.587 45.5724 109.382C45.6772 109.177 45.7253 108.947 45.7117 108.717C45.7277 108.383 45.6361 108.053 45.4507 107.776C45.2022 107.471 44.8903 107.226 44.5373 107.058C43.8816 106.715 43.2093 106.407 42.5229 106.133C41.0743 105.626 39.7504 104.81 38.6409 103.74C38.1985 103.29 37.85 102.755 37.616 102.167C37.382 101.578 37.2674 100.948 37.2789 100.314C37.2674 99.3556 37.5187 98.4127 38.0048 97.5901C38.5168 96.7592 39.2485 96.0901 40.117 95.6586C41.1313 95.1557 42.2501 94.9066 43.3792 94.9323C44.9616 94.8502 46.5314 95.256 47.881 96.0961C48.4233 96.4622 48.8869 96.9353 49.2443 97.487C49.6016 98.0387 49.8453 98.6577 49.9607 99.307L46.4864 100.818C46.3305 100.161 45.9562 99.5777 45.4262 99.1667C44.8864 98.7717 44.2326 98.5685 43.5668 98.5889C43.0772 98.5568 42.5914 98.6935 42.1885 98.9769C42.0331 99.0959 41.9082 99.251 41.8245 99.4292C41.7407 99.6073 41.7006 99.8032 41.7074 100C41.7017 100.223 41.7536 100.442 41.8581 100.638C41.9626 100.833 42.1159 100.998 42.3027 101.115C43.0884 101.576 43.9061 101.978 44.7493 102.32C46.2548 102.869 47.6399 103.71 48.8271 104.796C49.284 105.261 49.642 105.816 49.8791 106.426C50.1161 107.037 50.2272 107.69 50.2053 108.345C50.2014 109.281 49.9447 110.197 49.4632 110.995C48.9158 111.888 48.1411 112.615 47.2204 113.1C46.1 113.675 44.8554 113.959 43.5994 113.925C42.0282 113.959 40.4793 113.544 39.1302 112.729C37.9314 112.008 37.0546 110.845 36.6836 109.485L40.272 107.908C40.5325 108.578 40.9697 109.164 41.5361 109.6C42.0997 110.026 42.782 110.26 43.4852 110.269Z" fill="white"/>
<path d="M52.252 89.3516L56.9658 91.0024V113.528H52.252V89.3516Z" fill="white"/>
<path d="M67.3954 113.999C65.8914 114.008 64.4145 113.594 63.1301 112.802C61.8109 111.982 60.7368 110.815 60.0229 109.426C59.2665 107.878 58.873 106.175 58.873 104.448C58.873 102.722 59.2665 101.019 60.0229 99.471C60.7222 98.0956 61.7844 96.9433 63.0915 96.1419C64.3987 95.3405 65.8998 94.9214 67.428 94.9311C68.5569 94.9083 69.675 95.1573 70.6902 95.6575C71.6439 96.1285 72.453 96.8532 73.0308 97.7541H73.1368V95.3686L77.8833 97.0195V113.528H73.145V110.804H73.039C72.4481 111.786 71.6274 112.605 70.6494 113.19C69.652 113.739 68.5309 114.018 67.3954 113.999ZM72.4599 107.205C72.8814 106.35 73.094 105.404 73.0797 104.448C73.1418 103.054 72.6717 101.688 71.7667 100.635C71.3316 100.161 70.8047 99.7832 70.2189 99.5248C69.633 99.2664 69.0009 99.1331 68.3618 99.1331C67.7228 99.1331 67.0906 99.2664 66.5047 99.5248C65.9189 99.7832 65.392 100.161 64.9569 100.635C64.0402 101.683 63.5582 103.049 63.6113 104.448C63.5945 105.404 63.8042 106.349 64.2229 107.205C64.6049 107.984 65.1919 108.641 65.9193 109.104C66.6555 109.561 67.5023 109.802 68.3659 109.802C69.2295 109.802 70.0763 109.561 70.8125 109.104C71.5219 108.634 72.0914 107.978 72.4599 107.205Z" fill="white"/>
<path d="M87.8247 95.6909C88.855 95.1724 89.9934 94.9119 91.1439 94.9315C92.6567 94.9132 94.1438 95.3281 95.4337 96.1283C96.7327 96.9424 97.783 98.1054 98.4675 99.4878C99.2305 101.023 99.6139 102.722 99.5848 104.44C99.6105 106.162 99.2155 107.863 98.4349 109.393C97.7319 110.778 96.663 111.939 95.347 112.747C94.031 113.554 92.5196 113.976 90.9808 113.966C89.8633 114.02 88.7526 113.763 87.7692 113.223C86.7858 112.683 85.9673 111.881 85.4025 110.904H85.2965V113.528H80.6152V89.3516L85.3291 90.697V97.9608H85.4677C86.0218 96.9908 86.84 96.2028 87.8247 95.6909ZM94.2511 107.206C94.6698 106.349 94.8796 105.404 94.8628 104.449C94.9159 103.05 94.4339 101.684 93.5172 100.635C93.0924 100.149 92.5681 99.7633 91.9807 99.5038C91.3933 99.2444 90.7571 99.1178 90.1163 99.1329C89.4693 99.1151 88.8261 99.2402 88.2318 99.4997C87.6374 99.7591 87.106 100.147 86.6747 100.635C85.7987 101.715 85.3198 103.068 85.3198 104.465C85.3198 105.862 85.7987 107.216 86.6747 108.295C87.4093 109.094 88.3936 109.612 89.4617 109.763C90.5297 109.913 91.6164 109.686 92.5385 109.121C93.2742 108.656 93.8672 107.993 94.2511 107.206Z" fill="white"/>
</g>
<defs>
<clipPath id="clip0_905_2337">
<rect width="99.5862" height="114" fill="white"/>
</clipPath>
</defs>
</svg>
