<svg width="59" height="67" viewBox="0 0 59 67" fill="none" xmlns="http://www.w3.org/2000/svg">
<g clip-path="url(#clip0_905_2709)">
<path d="M38.9231 8.10156H32.2988V9.76553H38.9231V8.10156Z" fill="#1D2328"/>
<path d="M34.6185 28.5891C34.5968 28.5651 34.5703 28.5459 34.5408 28.5328C34.5112 28.5197 34.4793 28.5129 34.447 28.5129C34.4147 28.5129 34.3828 28.5197 34.3532 28.5328C34.3237 28.5459 34.2972 28.5651 34.2755 28.5891C34.1402 28.7346 33.9952 28.8801 33.8454 29.016L33.628 29.2052C33.5555 29.2634 33.4831 29.3216 33.4058 29.3749C32.8246 29.82 32.1706 30.1599 31.4731 30.3791L31.2653 30.4422C31.1638 30.4713 31.0624 30.5004 30.9609 30.5198C30.8749 30.5423 30.7878 30.5601 30.7 30.5732L30.4391 30.6169L30.1347 30.6508C29.9325 30.6726 29.7292 30.6823 29.5259 30.6799C29.3193 30.6824 29.1128 30.6727 28.9074 30.6508C28.806 30.6508 28.7045 30.6508 28.603 30.6169C28.5016 30.5829 28.4243 30.5878 28.3373 30.5732C28.2509 30.5606 28.1654 30.5427 28.0812 30.5198C27.9785 30.4991 27.8769 30.4732 27.7768 30.4422L27.5401 30.3889C26.6451 30.1127 25.8207 29.6442 25.1242 29.016C24.9793 28.8801 24.8343 28.7346 24.699 28.5891C24.6782 28.5636 24.652 28.5432 24.6223 28.5291C24.5927 28.5151 24.5603 28.5078 24.5275 28.5078C24.4947 28.5078 24.4623 28.5151 24.4327 28.5291C24.403 28.5432 24.3768 28.5636 24.356 28.5891C24.2207 28.7346 24.0806 28.8753 23.9356 29.0063C22.9639 29.8794 21.7531 30.4388 20.4606 30.6118C19.1681 30.7849 17.8536 30.5635 16.688 29.9765C16.4047 29.8346 16.1318 29.6725 15.8715 29.4914C15.8338 29.463 15.7881 29.4477 15.741 29.4477C15.694 29.4477 15.6482 29.463 15.6106 29.4914C15.3485 29.6724 15.0741 29.8345 14.7892 29.9765C14.4786 30.133 14.1553 30.2629 13.8228 30.3646L13.6151 30.4277C13.5136 30.4568 13.4121 30.4859 13.3107 30.5053C13.2232 30.5295 13.1345 30.549 13.0449 30.5635L12.784 30.6072L12.4796 30.6411H12.1994H11.8708C11.6643 30.6436 11.4578 30.6339 11.2524 30.612C11.1509 30.612 11.0494 30.612 10.948 30.578L10.6919 30.5635C10.604 30.5504 10.5169 30.5326 10.431 30.5101C10.3295 30.5101 10.228 30.4616 10.1266 30.4325L9.91881 30.3694C9.78836 30.3306 9.66273 30.287 9.53711 30.2385C9.6579 30.7818 9.79319 31.3154 9.9478 31.8394L10.431 31.9655L10.6001 32.0043L10.9576 32.0625C11.0446 32.0625 11.1316 32.0868 11.2185 32.0916H11.262C11.3393 32.0916 11.4118 32.0916 11.4891 32.0916H12.2622H12.4845H12.5328H12.6294H12.7937C12.9725 32.0916 13.1464 32.0334 13.3203 31.9946C14.2003 31.777 15.0239 31.3734 15.7362 30.8109C16.4965 31.4034 17.3801 31.8163 18.3212 32.0189C19.4572 32.2469 20.6334 32.1657 21.7277 31.7835C22.822 31.4014 23.7945 30.7322 24.5444 29.8455C24.6362 29.9522 24.728 30.059 24.8246 30.1608L24.8923 30.2288C24.9696 30.3112 25.0566 30.3889 25.1387 30.4665L25.2692 30.5829C26.0661 31.27 27.0182 31.7513 28.0426 31.9849L28.2165 32.0237L28.574 32.0819C28.661 32.0819 28.748 32.1062 28.835 32.111H28.8784C28.9557 32.111 29.0282 32.111 29.1055 32.111H29.8786C29.9511 32.111 30.0236 32.111 30.1009 32.111H30.1492C30.2362 32.111 30.3231 32.111 30.4101 32.0819C30.5889 32.0819 30.7628 32.0237 30.9367 31.9849C31.9671 31.7531 32.9226 31.2642 33.715 30.5635L33.8454 30.4471L34.0967 30.2094L34.1595 30.1414L34.4059 29.8746C34.6401 29.5961 34.8517 29.2992 35.0389 28.9869C34.8921 28.8615 34.7518 28.7287 34.6185 28.5891Z" fill="#1D2328"/>
<path d="M24.3704 28.5909C24.3921 28.567 24.4186 28.5478 24.4482 28.5347C24.4777 28.5216 24.5096 28.5148 24.5419 28.5148C24.5742 28.5148 24.6062 28.5216 24.6357 28.5347C24.6652 28.5478 24.6917 28.567 24.7135 28.5909C24.8536 28.7365 24.9937 28.882 25.1435 29.0179L25.3657 29.207L25.5832 29.3768C26.1643 29.8219 26.8183 30.1618 27.5158 30.381L27.7236 30.4441C27.8251 30.4732 27.9265 30.5023 28.028 30.5217C28.1122 30.5446 28.1977 30.5625 28.2841 30.5751C28.3711 30.5751 28.458 30.609 28.5498 30.6187L28.8542 30.6527C29.0564 30.6746 29.2597 30.6843 29.463 30.6818C29.6696 30.6843 29.8761 30.6746 30.0815 30.6527C30.1829 30.6527 30.2844 30.6527 30.3859 30.6187L30.6468 30.5751C30.7346 30.562 30.8217 30.5442 30.9077 30.5217C31.0092 30.5217 31.1106 30.4732 31.2121 30.4441L31.4199 30.381C32.3151 30.1055 33.1396 29.6369 33.8357 29.0081C33.9855 28.8723 34.1305 28.7268 34.2657 28.5812C34.2866 28.5558 34.3128 28.5354 34.3424 28.5213C34.3721 28.5073 34.4045 28.5 34.4373 28.5C34.4701 28.5 34.5024 28.5073 34.5321 28.5213C34.5617 28.5354 34.5879 28.5558 34.6088 28.5812C34.7416 28.7275 34.8819 28.8668 35.0292 28.9984C36.0008 29.8716 37.2116 30.431 38.5041 30.604C39.7967 30.7771 41.1112 30.5557 42.2767 29.9687C42.5607 29.8279 42.8337 29.6657 43.0933 29.4836C43.132 29.4555 43.1784 29.4405 43.2261 29.4405C43.2738 29.4405 43.3203 29.4555 43.359 29.4836C43.6197 29.6667 43.8944 29.8289 44.1804 29.9687C44.4905 30.1263 44.8139 30.2562 45.1467 30.3568L45.3593 30.4198C45.4593 30.4514 45.5609 30.4773 45.6637 30.4975C45.748 30.5204 45.8335 30.5382 45.9198 30.5508C46.0068 30.5508 46.0938 30.5848 46.1856 30.5945L46.49 30.6285H46.7654H47.0988C47.3037 30.631 47.5086 30.6212 47.7124 30.5993C47.8139 30.5993 47.9201 30.5993 48.0168 30.5654C48.1134 30.5314 48.1956 30.5363 48.2825 30.5217C48.3689 30.5091 48.4544 30.4913 48.5386 30.4684C48.6414 30.4482 48.7431 30.4223 48.843 30.3907L49.0508 30.3277C49.1812 30.2889 49.3117 30.2452 49.4373 30.1967C49.3117 30.74 49.1764 31.2737 49.0266 31.7976L48.5434 31.9237L48.3695 31.9625C48.2535 31.9625 48.1327 32.0062 48.012 32.0207C47.8912 32.0353 47.838 32.045 47.751 32.0499H47.7076C47.6302 32.0499 47.5578 32.0499 47.4853 32.0499H46.7316C46.6591 32.0499 46.5866 32.0499 46.5093 32.0499H46.4658H46.3692H46.2049C46.0261 32.0499 45.8473 31.9916 45.6734 31.9528C44.7938 31.7342 43.9704 31.3308 43.2575 30.7691C42.5004 31.3787 41.6146 31.8068 40.6678 32.0207C39.5312 32.2477 38.3549 32.1655 37.2607 31.7825C36.1665 31.3995 35.1942 30.7297 34.4445 29.8426C34.3527 29.9493 34.2561 30.056 34.1594 30.1579L34.0966 30.2258L33.8454 30.4635L33.7198 30.5799C32.9154 31.2708 31.955 31.7538 30.9222 31.9868L30.7531 32.0256L30.3955 32.0838C30.3086 32.0838 30.2216 32.1081 30.1346 32.1129H30.0863H29.8641H29.091C29.0137 32.1129 28.9412 32.1129 28.8639 32.1129H28.8204C28.7334 32.1129 28.6465 32.1129 28.5595 32.0838C28.3807 32.0838 28.2019 32.0256 28.028 31.9868C27.0062 31.7512 26.0594 31.2625 25.2739 30.5654L25.1241 30.4684C25.042 30.3907 24.955 30.3131 24.8777 30.2307L24.8149 30.1627C24.7279 30.0754 24.6458 29.9881 24.5685 29.8959C24.3312 29.6198 24.1194 29.3227 23.9355 29.0081C24.0878 28.877 24.233 28.7377 24.3704 28.5909Z" fill="#1D2328"/>
<path d="M38.9231 10.5938H32.2988V12.2577H38.9231V10.5938Z" fill="#1D2328"/>
<path d="M45.5184 13.0938H32.2988V14.7577H45.5184V13.0938Z" fill="#1D2328"/>
<path d="M43.8659 15.5859H32.2988V17.2499H43.8659V15.5859Z" fill="#1D2328"/>
<path d="M40.9524 18.0703H32.2988V19.7343H40.9524V18.0703Z" fill="#1D2328"/>
<path d="M40.1359 20.5625H32.2988V22.2265H40.1359V20.5625Z" fill="#1D2328"/>
<path d="M49.8535 26.6945V24.1719L9.07389 24.1719V26.6945L49.8535 26.6945Z" fill="#1D2328"/>
<path d="M30.7586 2.00781H28.2461V26.3851H30.7586V2.00781Z" fill="#1D2328"/>
<path d="M49.017 5.95867L46.6012 5.47355C43.4193 4.81399 40.2808 3.95856 37.2035 2.91212C34.7876 2.11167 32.4346 1.17054 30.1106 0.14208C29.9194 0.0485868 29.7096 0 29.4969 0C29.2843 0 29.0745 0.0485868 28.8833 0.14208C28.5354 0.307021 28.1827 0.452557 27.83 0.6272C23.8421 2.34412 19.7194 3.72658 15.5043 4.76043C13.6731 5.21159 11.8177 5.56088 9.97199 5.95867C9.66555 6.0077 9.38865 6.17057 9.19623 6.41499C9.0038 6.65941 8.90991 6.96752 8.93317 7.2782V8.40853C8.93317 13.871 8.93317 19.3367 8.93317 24.8056C8.92792 26.1646 9.03946 27.5215 9.26656 28.8612C9.3487 29.3463 9.4405 29.8315 9.54196 30.2826C9.66276 30.826 9.79805 31.3596 9.95266 31.8835C10.3283 33.2151 10.8132 34.5132 11.4022 35.7645C11.6389 36.2496 11.8853 36.7347 12.1608 37.2198C12.7752 38.3183 13.4731 39.3677 14.248 40.3586C14.5138 40.6982 14.794 41.0377 15.0791 41.3628C15.4753 41.8236 15.8957 42.2796 16.3353 42.7211C19.8307 46.2615 24.2992 48.6737 29.1684 49.6486C29.3924 49.685 29.6208 49.685 29.8448 49.6486C30.1154 49.6098 30.386 49.5322 30.6565 49.4691C33.9912 48.6645 37.1268 47.1836 39.8706 45.1176C41.3547 44.0149 42.7098 42.7472 43.9099 41.3385C44.195 41.0086 44.4704 40.6739 44.7313 40.3246C44.8618 40.1645 44.9874 39.9947 45.1082 39.8395C45.7286 38.9948 46.2982 38.1135 46.8138 37.2004C47.094 36.7153 47.3501 36.2302 47.5868 35.7451C49.0812 32.6502 49.9047 29.2721 50.0027 25.8341L50.0462 16.7526V7.2491C50.0602 6.94516 49.9634 6.64651 49.774 6.40901C49.5846 6.17151 49.3155 6.01142 49.017 5.95867ZM47.5434 24.7425C47.5693 28.444 46.6953 32.0958 44.997 35.3812C44.7989 35.7742 44.5815 36.1574 44.3448 36.5407C43.484 37.9617 42.4714 39.2842 41.3249 40.4847C40.9432 40.8874 40.5374 41.2852 40.117 41.6781C39.9141 41.8673 39.7063 42.0516 39.4986 42.2311C36.6753 44.6328 33.3013 46.2916 29.6805 47.0581C29.5549 47.0871 29.4244 47.0871 29.2988 47.0581C25.683 46.2721 22.3148 44.6062 19.4905 42.2069C18.8422 41.6558 18.2244 41.0696 17.6399 40.4507L17.2872 40.0675C16.2937 38.972 15.41 37.781 14.6491 36.5116C14.422 36.1332 14.2046 35.7451 14.0016 35.3521C13.455 34.3016 12.9944 33.208 12.6246 32.0824C12.47 31.5973 12.3299 31.1413 12.2042 30.6659C12.0158 29.9333 11.8564 29.2105 11.7211 28.4198C11.5284 27.2037 11.4346 25.9739 11.4408 24.7425V8.24844C12.9725 7.90401 14.4703 7.59353 15.9585 7.22969C19.2571 6.42321 22.501 5.40561 25.6702 4.18313C26.8975 3.69801 28.0861 3.17893 29.3326 2.68896C29.4483 2.6479 29.5745 2.6479 29.6902 2.68896C32.2317 3.78048 34.807 4.77013 37.4209 5.62394C40.6625 6.66681 43.9637 7.51245 47.3066 8.15627L47.5385 8.21449V8.52981C47.5482 13.9535 47.5723 19.3432 47.5434 24.7425Z" fill="#1D2328"/>
<path d="M40.3105 30.6283C40.4893 30.604 40.6633 30.5701 40.8324 30.5312C40.6633 30.5652 40.4893 30.604 40.3105 30.6283Z" fill="#1D2328"/>
<path d="M41.4414 30.3613C41.5767 30.3128 41.7168 30.2643 41.8473 30.2109L41.4414 30.3613Z" fill="#1D2328"/>
<path d="M49.0702 30.3889L48.8624 30.4519C48.7625 30.4835 48.6608 30.5094 48.558 30.5295C48.4782 30.5454 48.3975 30.5567 48.3164 30.5635C48.2294 30.5635 48.1425 30.5975 48.0507 30.6072C47.9589 30.6169 47.8477 30.6363 47.7463 30.6411C47.5425 30.663 47.3376 30.6727 47.1326 30.6702H46.7993H46.5238L46.2194 30.6363C46.1276 30.6363 46.0407 30.6072 45.9537 30.5926C45.8674 30.58 45.7818 30.5621 45.6976 30.5392C45.5948 30.5191 45.4932 30.4932 45.3932 30.4616L45.1806 30.3986C44.8478 30.298 44.5244 30.1681 44.2143 30.0105C43.9282 29.8707 43.6536 29.7084 43.3929 29.5253C43.3542 29.4973 43.3077 29.4822 43.26 29.4822C43.2123 29.4822 43.1658 29.4973 43.1272 29.5253C42.8675 29.7075 42.5946 29.8697 42.3106 30.0105C41.145 30.5975 39.8305 30.8188 38.538 30.6458C37.2455 30.4728 36.0347 29.9133 35.063 29.0402C34.9158 28.9086 34.7755 28.7693 34.6427 28.623C34.6218 28.5976 34.5956 28.5771 34.566 28.5631C34.5363 28.5491 34.5039 28.5418 34.4711 28.5418C34.4384 28.5418 34.406 28.5491 34.3763 28.5631C34.3467 28.5771 34.3205 28.5976 34.2996 28.623C34.1885 28.7443 34.0725 28.8559 33.9517 28.9723L33.8696 29.0499L33.6522 29.2391L33.4637 29.3847L33.4202 29.4186C33.2801 29.5253 33.1352 29.6272 32.9902 29.7194L32.9371 29.7533C32.8115 29.831 32.6858 29.9037 32.5554 29.9716L32.4732 30.0153C32.3379 30.0881 32.1978 30.1511 32.0577 30.2094L31.9273 30.2627C31.7775 30.3209 31.6277 30.3791 31.4779 30.4228L31.2701 30.4859C31.1687 30.515 31.0672 30.5441 30.9657 30.5635C30.8798 30.5859 30.7927 30.6037 30.7048 30.6169L30.4439 30.6605L30.1395 30.6945H30.1105C29.9173 30.6945 29.7192 30.6945 29.5259 30.6945C29.3326 30.6945 29.1345 30.6945 28.9413 30.6945H28.9123L28.6079 30.6605C28.5161 30.6605 28.4291 30.6314 28.3421 30.6169C28.2558 30.6042 28.1703 30.5864 28.086 30.5635C27.9846 30.5635 27.8831 30.515 27.7816 30.4859L27.5401 30.3889C27.3876 30.3435 27.2376 30.2901 27.0907 30.2288L26.9554 30.1754C26.8154 30.1177 26.6783 30.0529 26.5447 29.9814L26.4626 29.9377C26.3321 29.8698 26.2017 29.797 26.0761 29.7194L26.0277 29.6854C25.8779 29.5933 25.733 29.4914 25.5929 29.3847L25.5494 29.3507L25.3658 29.2052L25.1242 29.016C25.0992 28.9876 25.0717 28.9617 25.0421 28.9383C24.9261 28.8219 24.8053 28.7103 24.699 28.5891C24.6782 28.5636 24.652 28.5432 24.6223 28.5291C24.5927 28.5151 24.5603 28.5078 24.5275 28.5078C24.4947 28.5078 24.4623 28.5151 24.4327 28.5291C24.403 28.5432 24.3768 28.5636 24.356 28.5891C24.2207 28.7346 24.0806 28.8753 23.9356 29.0063C22.9639 29.8794 21.7531 30.4388 20.4606 30.6118C19.1681 30.7849 17.8536 30.5635 16.688 29.9765C16.4047 29.8346 16.1318 29.6725 15.8715 29.4914C15.8338 29.463 15.7881 29.4477 15.741 29.4477C15.694 29.4477 15.6482 29.463 15.6106 29.4914C15.3485 29.6724 15.0741 29.8345 14.7892 29.9765C14.4786 30.133 14.1553 30.2629 13.8228 30.3646L13.6151 30.4277C13.5136 30.4568 13.4121 30.4859 13.3107 30.5053C13.2232 30.5295 13.1345 30.549 13.0449 30.5635L12.784 30.6072L12.4796 30.6411H12.1994H11.8708C11.6643 30.6436 11.4578 30.6339 11.2524 30.612C11.1509 30.612 11.0494 30.612 10.948 30.578L10.6919 30.5635C10.604 30.5504 10.5169 30.5326 10.431 30.5101C10.3295 30.5101 10.228 30.4616 10.1266 30.4325L9.91881 30.3694C9.78836 30.3306 9.66273 30.287 9.53711 30.2385C9.6579 30.7818 9.79319 31.3154 9.9478 31.8394L10.431 31.9655L10.6001 32.0043L10.9576 32.0625C11.0446 32.0625 11.1316 32.0868 11.2185 32.0916H11.262C11.3393 32.0916 11.4118 32.0916 11.4891 32.0916H12.2622H12.4845H12.5328H12.6294H12.7937C12.9725 32.0916 13.1464 32.0334 13.3203 31.9946C14.2003 31.777 15.0239 31.3734 15.7362 30.8109C16.4965 31.4034 17.3801 31.8163 18.3212 32.0189C19.4572 32.2469 20.6334 32.1657 21.7277 31.7835C22.822 31.4014 23.7945 30.7322 24.5444 29.8455L24.5734 29.8795L24.7522 30.0784C24.7755 30.0986 24.7966 30.1214 24.815 30.1463L24.8826 30.2142C24.9599 30.2967 25.0469 30.3743 25.129 30.4519L25.2595 30.5683L25.2885 30.5926C26.0704 31.277 27.0106 31.754 28.0232 31.98L28.1972 32.0189L28.5547 32.0771C28.6417 32.0771 28.7287 32.1013 28.8156 32.1062H28.8591C28.9364 32.1062 29.0089 32.1062 29.0862 32.1062H29.8593H30.0815H30.1299C30.2168 32.1062 30.3038 32.1062 30.3908 32.0771L30.7483 32.0189L30.9174 31.98C31.927 31.7575 32.8653 31.2856 33.6473 30.6072L33.6812 30.5829L33.8068 30.4665L34.058 30.2288L34.1208 30.1608L34.1837 30.0929L34.3673 29.894L34.4011 29.8601C35.1568 30.7511 36.1373 31.4217 37.2399 31.8015C38.3424 32.1813 39.5264 32.2564 40.6678 32.0189C41.6122 31.8136 42.4977 31.3956 43.2576 30.7964C43.9705 31.358 44.7939 31.7615 45.6735 31.98C45.8474 32.0189 46.0262 32.0528 46.205 32.0771H46.3692H46.4659H46.5093C46.5867 32.0771 46.6591 32.0771 46.7316 32.0771H47.5095C47.582 32.0771 47.6545 32.0771 47.7318 32.0771H47.7753C47.8622 32.0771 47.9492 32.0771 48.0362 32.048C48.1231 32.0189 48.2778 32.0092 48.3937 31.9898L48.5677 31.9509L49.0508 31.8248C49.2006 31.3009 49.3359 30.7672 49.4615 30.2239C49.3311 30.3064 49.2006 30.35 49.0702 30.3889Z" fill="#1D2328"/>
<path d="M47.588 35.7179C47.3513 36.203 47.1049 36.6882 46.815 37.1733H46.7328H46.5106H46.4623H46.3704H46.2013C46.0274 37.1733 45.8486 37.1151 45.6747 37.0763C45.213 36.9722 44.7664 36.8091 44.346 36.5911C43.9642 36.392 43.6004 36.1599 43.2588 35.8974C42.4989 36.4966 41.6134 36.9146 40.669 37.1199C40.2486 37.2005 39.8215 37.2411 39.3935 37.2412C38.4517 37.2429 37.521 37.0379 36.6664 36.6407C35.8118 36.2436 35.0539 35.6637 34.4458 34.9417L34.412 34.9757L34.2284 35.1697L34.1656 35.2425L34.1027 35.3104L33.8515 35.5481L33.721 35.6646C33.721 35.6646 33.721 35.6646 33.692 35.6646C32.9084 36.3407 31.9707 36.8122 30.9621 37.0374L30.7882 37.0763L30.4355 37.1345L30.1746 37.1636H30.1262H29.904H29.1309H28.9038H28.8603L28.5994 37.1345L28.2419 37.0763L28.0679 37.0374C27.0594 36.8122 26.1217 36.3407 25.338 35.6646H25.309L25.1254 35.5093C25.0433 35.4317 24.9563 35.3541 24.879 35.2716L24.8114 35.2037L24.7486 35.1309L24.5698 34.9369L24.5408 34.9029C23.7903 35.7871 22.8181 36.4538 21.7248 36.8342C20.6315 37.2146 19.4569 37.2948 18.3224 37.0666C17.3784 36.8603 16.493 36.4424 15.7326 35.844C15.3921 36.1044 15.03 36.3348 14.6503 36.5329C14.2293 36.7537 13.7808 36.9169 13.3167 37.018C13.1428 37.0568 12.9688 37.0908 12.7901 37.1151H12.6258H12.5292H12.4808H12.2586H12.1668C11.8962 36.6299 11.645 36.1448 11.4082 35.6597C11.5628 35.6597 11.7174 35.6597 11.8914 35.6597H12.2199H12.5002L12.8046 35.6257C12.8923 35.6159 12.9794 35.6013 13.0655 35.5821C13.1533 35.569 13.2404 35.5512 13.3264 35.5287C13.4279 35.5287 13.5293 35.4802 13.6308 35.4511L13.8386 35.388L14.0173 35.3298C14.2854 35.2379 14.5469 35.1277 14.8001 34.9999C15.085 34.8609 15.3581 34.6986 15.6166 34.5148C15.6553 34.4868 15.7018 34.4717 15.7495 34.4717C15.7972 34.4717 15.8437 34.4868 15.8824 34.5148C16.1415 34.6976 16.4146 34.8598 16.6989 34.9999C17.8637 35.5903 19.1789 35.8135 20.4722 35.6403C21.7655 35.4672 22.9765 34.9058 23.9465 34.0297C24.0914 33.8987 24.2316 33.758 24.3668 33.6125C24.3877 33.5871 24.4139 33.5666 24.4435 33.5526C24.4732 33.5385 24.5056 33.5312 24.5384 33.5312C24.5712 33.5312 24.6035 33.5385 24.6332 33.5526C24.6629 33.5666 24.689 33.5871 24.7099 33.6125C24.8162 33.7338 24.937 33.8453 25.0529 33.9618L25.1351 34.0394L25.3573 34.2286L25.541 34.3741L25.6086 34.4469C25.7503 34.5536 25.8953 34.6555 26.0435 34.7525L26.0966 34.7816C26.2174 34.8593 26.3478 34.932 26.4783 34.9999L26.5604 35.0436C26.694 35.1151 26.8311 35.1799 26.9711 35.2376L27.1064 35.291C27.2562 35.3492 27.4012 35.4074 27.5558 35.4511L27.7635 35.5142C27.8636 35.5452 27.9652 35.5711 28.0679 35.5918C28.1522 35.6147 28.2377 35.6325 28.324 35.6451C28.4117 35.6648 28.5004 35.6794 28.5898 35.6888L28.8942 35.7228H28.9231C29.1174 35.7423 29.3125 35.752 29.5078 35.7519C29.7014 35.752 29.8949 35.7423 30.0876 35.7228H30.1214L30.4258 35.6888C30.5135 35.679 30.6006 35.6644 30.6867 35.6451C30.7746 35.632 30.8617 35.6142 30.9476 35.5918C31.0491 35.5918 31.1506 35.5433 31.252 35.5142L31.4598 35.4511C31.6096 35.4074 31.7594 35.3492 31.9043 35.291L32.0396 35.2376C32.1797 35.1794 32.3198 35.1164 32.4551 35.0436L32.5373 34.9999C32.6677 34.932 32.7933 34.8593 32.919 34.7816C32.9356 34.7701 32.9534 34.7603 32.9721 34.7525C33.1171 34.6555 33.262 34.5536 33.4021 34.4469L33.4456 34.4129L33.6341 34.2674L33.8515 34.0782L33.9336 34.0006C34.0544 33.8842 34.1704 33.7726 34.2815 33.6513C34.3024 33.6259 34.3286 33.6054 34.3582 33.5914C34.3879 33.5773 34.4202 33.5701 34.453 33.5701C34.4858 33.5701 34.5182 33.5773 34.5479 33.5914C34.5775 33.6054 34.6037 33.6259 34.6246 33.6513C34.7562 33.7988 34.8965 33.9381 35.0449 34.0685C36.0149 34.9446 37.226 35.506 38.5192 35.6791C39.8125 35.8523 41.1277 35.6291 42.2925 35.0387C42.5768 34.8986 42.8499 34.7364 43.109 34.5536C43.1477 34.5256 43.1942 34.5105 43.2419 34.5105C43.2896 34.5105 43.3361 34.5256 43.3748 34.5536C43.6333 34.7375 43.9064 34.8997 44.1913 35.0387C44.4481 35.1672 44.7127 35.279 44.9837 35.3735L45.1529 35.4268L45.3606 35.4899C45.4621 35.519 45.5636 35.5481 45.665 35.5675C45.751 35.59 45.8381 35.6078 45.9259 35.6209C46.0121 35.6402 46.0992 35.6547 46.1868 35.6646L46.4912 35.6985H46.7715H47.1C47.2788 35.7373 47.4334 35.7325 47.588 35.7179Z" fill="#1D2328"/>
<path d="M44.7323 40.3185C44.4714 40.6678 44.196 41.0025 43.9109 41.3324C43.685 41.1965 43.4672 41.0475 43.2587 40.8861C42.4988 41.4853 41.6132 41.9033 40.6689 42.1086C40.2832 42.1818 39.892 42.2224 39.4996 42.2299H39.3933C38.4516 42.2315 37.5208 42.0266 36.6662 41.6294C35.8116 41.2322 35.0537 40.6524 34.4456 39.9304L34.4118 39.9643C34.349 40.0323 34.2862 40.0953 34.2282 40.1632C34.2061 40.1847 34.1851 40.2074 34.1654 40.2312L34.1026 40.2991L33.8513 40.5368L33.7209 40.6532C33.7209 40.6532 33.7209 40.6532 33.6919 40.6775C32.9082 41.3536 31.9705 41.8251 30.962 42.0504L30.788 42.0892C30.6721 42.0892 30.5513 42.1328 30.4353 42.1474L30.1744 42.1765H30.1261H29.9038H29.1307H28.9036H28.8602L28.5993 42.1474C28.4833 42.1474 28.3577 42.1134 28.2417 42.0892L28.0678 42.0504C27.0592 41.8251 26.1215 41.3536 25.3378 40.6775L25.3089 40.6532L25.1253 40.5513C25.0431 40.4737 24.9561 40.3961 24.8788 40.3136C24.8551 40.2922 24.8325 40.2695 24.8112 40.2457C24.7928 40.2208 24.7718 40.198 24.7484 40.1778L24.5696 39.9789L24.5406 39.9449C23.9176 40.6732 23.1418 41.254 22.2689 41.6457C21.3959 42.0374 20.4474 42.2303 19.4915 42.2104C19.099 42.2034 18.7078 42.1629 18.3222 42.0892C17.3782 41.8829 16.4928 41.465 15.7324 40.8667C15.5254 41.0265 15.3093 41.1739 15.085 41.3081C14.7999 40.9831 14.5197 40.6435 14.2539 40.3039C14.4353 40.2346 14.6128 40.1553 14.7854 40.0662C15.0712 39.9289 15.3445 39.7666 15.602 39.5811C15.6406 39.5531 15.6871 39.538 15.7348 39.538C15.7825 39.538 15.829 39.5531 15.8677 39.5811C16.1281 39.7621 16.4009 39.9242 16.6843 40.0662C16.997 40.218 17.3199 40.3477 17.6506 40.4543C18.7295 40.7984 19.8793 40.8528 20.9856 40.6119C22.0919 40.371 23.116 39.8433 23.956 39.0814C24.1009 38.9504 24.241 38.8098 24.3763 38.6642C24.3972 38.6388 24.4234 38.6183 24.453 38.6043C24.4827 38.5903 24.5151 38.583 24.5479 38.583C24.5807 38.583 24.613 38.5903 24.6427 38.6043C24.6723 38.6183 24.6985 38.6388 24.7194 38.6642C24.8257 38.7855 24.9465 38.9019 25.0624 39.0135L25.1446 39.0911L25.3668 39.2803C25.4248 39.3337 25.4876 39.3773 25.5504 39.4259L25.5939 39.4598C25.734 39.5617 25.879 39.6636 26.0288 39.7606L26.0916 39.7848C26.2124 39.8625 26.3428 39.9352 26.4733 40.0031L26.5554 40.0468C26.689 40.1183 26.8261 40.1831 26.9661 40.2409L27.1014 40.2942C27.2512 40.3524 27.3962 40.4107 27.5508 40.4592C27.6184 40.4592 27.6861 40.5028 27.7585 40.5174C27.8586 40.5484 27.9602 40.5743 28.0629 40.595C28.1472 40.6179 28.2327 40.6357 28.319 40.6484C28.4067 40.668 28.4954 40.6826 28.5848 40.692C28.6862 40.692 28.7829 40.7211 28.8892 40.726H28.9181C29.1124 40.7455 29.3075 40.7552 29.5028 40.7551C29.6964 40.7552 29.8899 40.7455 30.0826 40.726H30.1164C30.2179 40.726 30.3193 40.726 30.4208 40.692C30.5085 40.6822 30.5956 40.6676 30.6817 40.6484C30.7696 40.6352 30.8567 40.6174 30.9426 40.595C31.0441 40.595 31.1456 40.5465 31.247 40.5174L31.4548 40.4592C31.6046 40.4107 31.7544 40.3524 31.8993 40.2942L32.0346 40.2409C32.1747 40.1826 32.3148 40.1196 32.4501 40.0468L32.5323 40.0031C32.6627 39.9352 32.7883 39.8625 32.914 39.7848L32.9671 39.7557L33.3971 39.455L33.4406 39.421C33.5034 39.3725 33.5662 39.3288 33.6291 39.2755L33.8465 39.0863L33.9286 39.0087C34.051 38.8987 34.167 38.7823 34.2765 38.6594C34.2974 38.634 34.3236 38.6135 34.3532 38.5995C34.3829 38.5854 34.4152 38.5781 34.448 38.5781C34.4808 38.5781 34.5132 38.5854 34.5429 38.5995C34.5725 38.6135 34.5987 38.634 34.6196 38.6594C34.7512 38.8068 34.8915 38.9462 35.0399 39.0766C36.2315 40.1588 37.7816 40.7572 39.3885 40.7551C40.0438 40.7542 40.6953 40.6544 41.3211 40.4592C41.6528 40.3511 41.9758 40.2182 42.2875 40.0614C42.5708 39.9193 42.8437 39.7572 43.104 39.5762C43.1427 39.5482 43.1892 39.5331 43.2369 39.5331C43.2846 39.5331 43.3311 39.5482 43.3698 39.5762C43.6272 39.7617 43.9005 39.9241 44.1863 40.0614C44.3636 40.1568 44.5459 40.2426 44.7323 40.3185Z" fill="#1D2328"/>
<path d="M14.9306 12.7472C14.6887 12.7556 14.4525 12.6725 14.2687 12.5144C14.1721 12.4155 14.0969 12.2977 14.0478 12.1683C13.9988 12.0389 13.9769 11.9007 13.9836 11.7624V9.62305C13.9769 9.48476 13.9988 9.34657 14.0478 9.21717C14.0969 9.08777 14.1721 8.96995 14.2687 8.87112C14.4561 8.71702 14.6908 8.63281 14.933 8.63281C15.1752 8.63281 15.41 8.71702 15.5974 8.87112C15.694 8.96995 15.7691 9.08777 15.8182 9.21717C15.8673 9.34657 15.8891 9.48476 15.8825 9.62305V11.7624C15.8891 11.9007 15.8673 12.0389 15.8182 12.1683C15.7691 12.2977 15.694 12.4155 15.5974 12.5144C15.4123 12.6736 15.1742 12.7568 14.9306 12.7472ZM14.9306 9.26892C14.8474 9.26014 14.7641 9.28453 14.6987 9.33683C14.6658 9.37625 14.6412 9.4219 14.6262 9.47107C14.6113 9.52024 14.6064 9.57193 14.6117 9.62305V11.7624C14.6064 11.8136 14.6113 11.8652 14.6262 11.9144C14.6412 11.9636 14.6658 12.0092 14.6987 12.0487C14.7652 12.0988 14.8477 12.1229 14.9306 12.1166C15.0151 12.1237 15.0993 12.0995 15.1674 12.0487C15.201 12.0097 15.2261 11.9641 15.2411 11.9148C15.2561 11.8655 15.2606 11.8136 15.2543 11.7624V9.62305C15.2606 9.57189 15.2561 9.51999 15.2411 9.47069C15.2261 9.42139 15.201 9.37579 15.1674 9.33683C15.1004 9.28377 15.0154 9.25936 14.9306 9.26892Z" fill="#1D2328"/>
<path d="M18.5685 8.67969H18.9309V12.7013H18.3028V9.79061L17.6602 10.3776V9.5141L18.5685 8.67969Z" fill="#1D2328"/>
<path d="M21.7429 12.7472C21.4994 12.7568 21.2612 12.6736 21.0761 12.5144C20.9769 12.4168 20.8991 12.2995 20.8475 12.1701C20.7959 12.0406 20.7718 11.9018 20.7766 11.7624V9.62305C20.7699 9.48476 20.7918 9.34657 20.8408 9.21717C20.8899 9.08777 20.9651 8.96995 21.0616 8.87112C21.249 8.71702 21.4838 8.63281 21.726 8.63281C21.9682 8.63281 22.203 8.71702 22.3904 8.87112C22.4869 8.96995 22.5621 9.08777 22.6112 9.21717C22.6602 9.34657 22.6821 9.48476 22.6754 9.62305V11.7624C22.6821 11.9007 22.6602 12.0389 22.6112 12.1683C22.5621 12.2977 22.4869 12.4155 22.3904 12.5144C22.2103 12.6691 21.9799 12.752 21.7429 12.7472ZM21.7429 9.26892C21.6582 9.25936 21.5731 9.28377 21.5062 9.33683C21.4733 9.37625 21.4486 9.4219 21.4337 9.47107C21.4188 9.52024 21.4138 9.57193 21.4192 9.62305V11.7624C21.4138 11.8136 21.4188 11.8652 21.4337 11.9144C21.4486 11.9636 21.4733 12.0092 21.5062 12.0487C21.5721 12.1047 21.6565 12.1341 21.7429 12.1311C21.826 12.1394 21.9091 12.115 21.9748 12.0632C22.0084 12.0243 22.0336 11.9787 22.0485 11.9294C22.0635 11.8801 22.068 11.8282 22.0618 11.777V9.62305C22.068 9.57189 22.0635 9.51999 22.0485 9.47069C22.0336 9.42139 22.0084 9.37579 21.9748 9.33683C21.9428 9.31022 21.9058 9.29046 21.8659 9.27878C21.826 9.2671 21.7841 9.26375 21.7429 9.26892Z" fill="#1D2328"/>
<path d="M25.4091 12.7472C25.1672 12.7556 24.931 12.6725 24.7472 12.5144C24.6506 12.4155 24.5754 12.2977 24.5264 12.1683C24.4773 12.0389 24.4554 11.9007 24.4621 11.7624V9.62305C24.4554 9.48476 24.4773 9.34657 24.5264 9.21717C24.5754 9.08777 24.6506 8.96995 24.7472 8.87112C24.9346 8.71702 25.1693 8.63281 25.4115 8.63281C25.6538 8.63281 25.8885 8.71702 26.0759 8.87112C26.1725 8.96995 26.2477 9.08777 26.2967 9.21717C26.3458 9.34657 26.3677 9.48476 26.361 9.62305V11.7624C26.3696 11.8997 26.35 12.0373 26.3034 12.1666C26.2569 12.296 26.1844 12.4143 26.0904 12.5144C25.9016 12.6772 25.6576 12.7606 25.4091 12.7472ZM25.4091 9.26892C25.3259 9.26014 25.2426 9.28453 25.1772 9.33683C25.1443 9.37625 25.1197 9.4219 25.1047 9.47107C25.0898 9.52024 25.0849 9.57193 25.0902 9.62305V11.7624C25.0849 11.8136 25.0898 11.8652 25.1047 11.9144C25.1197 11.9636 25.1443 12.0092 25.1772 12.0487C25.2489 12.096 25.3329 12.1213 25.4188 12.1213C25.5047 12.1213 25.5886 12.096 25.6604 12.0487C25.694 12.0097 25.7191 11.9641 25.7341 11.9148C25.7491 11.8655 25.7536 11.8136 25.7473 11.7624V9.62305C25.7536 9.57189 25.7491 9.51999 25.7341 9.47069C25.7191 9.42139 25.694 9.37579 25.6604 9.33683C25.6258 9.30814 25.5854 9.28724 25.5421 9.27552C25.4987 9.26381 25.4534 9.26155 25.4091 9.26892Z" fill="#1D2328"/>
<path d="M14.9288 17.8254C14.6856 17.8364 14.4479 17.751 14.2668 17.5876C14.17 17.489 14.0947 17.3712 14.0456 17.2418C13.9965 17.1123 13.9748 16.974 13.9817 16.8357V14.7012C13.9748 14.5629 13.9965 14.4246 14.0456 14.2951C14.0947 14.1657 14.17 14.0479 14.2668 13.9492C14.4542 13.7951 14.689 13.7109 14.9312 13.7109C15.1734 13.7109 15.4081 13.7951 15.5955 13.9492C15.6924 14.0479 15.7677 14.1657 15.8168 14.2951C15.8658 14.4246 15.8876 14.5629 15.8806 14.7012V16.8357C15.8876 16.974 15.8658 17.1123 15.8168 17.2418C15.7677 17.3712 15.6924 17.489 15.5955 17.5876C15.413 17.7518 15.1735 17.8371 14.9288 17.8254ZM14.9288 14.3422C14.8449 14.3348 14.7615 14.3609 14.6968 14.415C14.6635 14.4541 14.6385 14.4997 14.6236 14.5489C14.6086 14.5982 14.6039 14.65 14.6099 14.7012V16.8357C14.6039 16.8869 14.6086 16.9387 14.6236 16.9879C14.6385 17.0372 14.6635 17.0828 14.6968 17.1219C14.7615 17.176 14.8449 17.2021 14.9288 17.1947C15.0142 17.2029 15.0993 17.1767 15.1655 17.1219C15.1991 17.083 15.2242 17.0374 15.2392 16.9881C15.2542 16.9388 15.2587 16.8869 15.2525 16.8357V14.7012C15.2587 14.65 15.2542 14.5981 15.2392 14.5488C15.2242 14.4995 15.1991 14.4539 15.1655 14.415C15.0993 14.3602 15.0142 14.334 14.9288 14.3422Z" fill="#1D2328"/>
<path d="M18.6267 17.8259C18.5062 17.8319 18.3858 17.814 18.2722 17.7732C18.1586 17.7324 18.0541 17.6695 17.9648 17.5882C17.8665 17.4906 17.7901 17.373 17.7409 17.2433C17.6918 17.1136 17.6709 16.9748 17.6797 16.8362V14.7017C17.6709 14.5632 17.6918 14.4244 17.7409 14.2947C17.7901 14.165 17.8665 14.0473 17.9648 13.9498C18.0541 13.8684 18.1586 13.8056 18.2722 13.7648C18.3858 13.724 18.5062 13.7061 18.6267 13.7121C18.8714 13.7003 19.111 13.7857 19.2935 13.9498C19.3903 14.0484 19.4657 14.1662 19.5147 14.2957C19.5638 14.4251 19.5855 14.5634 19.5786 14.7017V16.8362C19.5855 16.9746 19.5638 17.1128 19.5147 17.2423C19.4657 17.3717 19.3903 17.4895 19.2935 17.5882C19.111 17.7523 18.8714 17.8377 18.6267 17.8259ZM18.6267 14.3427C18.5429 14.3353 18.4595 14.3615 18.3948 14.4155C18.3614 14.4546 18.3365 14.5002 18.3215 14.5495C18.3065 14.5987 18.3019 14.6506 18.3078 14.7017V16.8362C18.3019 16.8874 18.3065 16.9392 18.3215 16.9885C18.3365 17.0377 18.3614 17.0833 18.3948 17.1225C18.4595 17.1765 18.5429 17.2027 18.6267 17.1952C18.7121 17.2034 18.7973 17.1773 18.8635 17.1225C18.8971 17.0835 18.9222 17.0379 18.9372 16.9886C18.9522 16.9393 18.9567 16.8874 18.9504 16.8362V14.7017C18.9567 14.6505 18.9522 14.5986 18.9372 14.5493C18.9222 14.5 18.8971 14.4544 18.8635 14.4155C18.7973 14.3607 18.7121 14.3345 18.6267 14.3427Z" fill="#1D2328"/>
<path d="M22.2638 13.7578H22.6262V17.7746H21.9981V14.8639L21.3555 15.446V14.5874L22.2638 13.7578Z" fill="#1D2328"/>
<path d="M25.3654 13.7578H25.7278V17.7746H25.0948V14.8639L24.457 15.4509V14.5874L25.3654 13.7578Z" fill="#1D2328"/>
<path d="M14.9288 23.046C14.6842 23.0544 14.4463 22.9655 14.2668 22.7986C14.17 22.6999 14.0947 22.5821 14.0456 22.4527C13.9965 22.3232 13.9748 22.185 13.9817 22.0466V19.9121C13.9748 19.7738 13.9965 19.6355 14.0456 19.5061C14.0947 19.3766 14.17 19.2588 14.2668 19.1602C14.4542 19.0061 14.689 18.9219 14.9312 18.9219C15.1734 18.9219 15.4081 19.0061 15.5955 19.1602C15.6924 19.2588 15.7677 19.3766 15.8168 19.5061C15.8658 19.6355 15.8876 19.7738 15.8806 19.9121V22.0466C15.8876 22.185 15.8658 22.3232 15.8168 22.4527C15.7677 22.5821 15.6924 22.6999 15.5955 22.7986C15.4145 22.9662 15.1748 23.0552 14.9288 23.046ZM14.9288 19.5628C14.8449 19.5554 14.7615 19.5816 14.6968 19.6356C14.6635 19.6747 14.6385 19.7203 14.6236 19.7696C14.6086 19.8188 14.6039 19.8707 14.6099 19.9218V22.0564C14.6039 22.1075 14.6086 22.1593 14.6236 22.2086C14.6385 22.2578 14.6635 22.3035 14.6968 22.3426C14.7615 22.3966 14.8449 22.4228 14.9288 22.4153C15.0142 22.4235 15.0993 22.3974 15.1655 22.3426C15.1991 22.3036 15.2242 22.258 15.2392 22.2087C15.2542 22.1594 15.2587 22.1075 15.2525 22.0564V19.9218C15.2587 19.8707 15.2542 19.8188 15.2392 19.7695C15.2242 19.7202 15.1991 19.6746 15.1655 19.6356C15.0993 19.5808 15.0142 19.5546 14.9288 19.5628Z" fill="#1D2328"/>
<path d="M18.5685 18.9844H18.9309V23.0012H18.3028V20.0904L17.6602 20.6774V19.8139L18.5685 18.9844Z" fill="#1D2328"/>
<path d="M21.743 23.0519C21.6172 23.0597 21.4911 23.0418 21.3723 22.9993C21.2535 22.9568 21.1446 22.8905 21.0521 22.8045C20.9582 22.7062 20.8854 22.5896 20.838 22.462C20.7907 22.3343 20.7698 22.1983 20.7767 22.0623V19.9277C20.7697 19.7894 20.7914 19.6511 20.8405 19.5217C20.8896 19.3923 20.9649 19.2745 21.0617 19.1758C21.2491 19.0217 21.4839 18.9375 21.7261 18.9375C21.9683 18.9375 22.2031 19.0217 22.3905 19.1758C22.4873 19.2745 22.5626 19.3923 22.6117 19.5217C22.6608 19.6511 22.6825 19.7894 22.6755 19.9277V22.0623C22.6799 22.1997 22.656 22.3365 22.6053 22.4643C22.5546 22.592 22.4781 22.7078 22.3808 22.8045C22.2073 22.9655 21.9792 23.054 21.743 23.0519ZM21.743 19.5688C21.6576 19.5606 21.5725 19.5867 21.5063 19.6415C21.4729 19.6806 21.448 19.7262 21.433 19.7755C21.418 19.8248 21.4134 19.8766 21.4193 19.9277V22.0623C21.4134 22.1134 21.418 22.1653 21.433 22.2145C21.448 22.2638 21.4729 22.3094 21.5063 22.3485C21.5725 22.4033 21.6576 22.4295 21.743 22.4213C21.7846 22.4258 21.8266 22.4216 21.8665 22.4091C21.9064 22.3966 21.9433 22.376 21.9749 22.3485C22.0086 22.3095 22.0337 22.2639 22.0486 22.2146C22.0636 22.1653 22.0681 22.1134 22.0619 22.0623V19.9277C22.0681 19.8766 22.0636 19.8247 22.0486 19.7754C22.0337 19.7261 22.0086 19.6805 21.9749 19.6415C21.9433 19.6141 21.9064 19.5934 21.8665 19.5809C21.8266 19.5684 21.7846 19.5642 21.743 19.5688Z" fill="#1D2328"/>
<path d="M25.3566 18.9844H25.7141V23.0012H25.086V20.0904L24.4434 20.6774V19.8139L25.3566 18.9844Z" fill="#1D2328"/>
<path d="M2.71515 56.53C3.6011 56.0356 4.60067 55.783 5.61417 55.7975C6.62768 55.783 7.62724 56.0356 8.5132 56.53C9.34932 57.0007 10.0398 57.694 10.5087 58.5335C10.9811 59.4148 11.2283 60.3999 11.2283 61.4006C11.2283 62.4013 10.9811 63.3865 10.5087 64.2677C10.0384 65.1061 9.34826 65.7991 8.5132 66.2712C7.62724 66.7656 6.62768 67.0182 5.61417 67.0037C4.60067 67.0182 3.6011 66.7656 2.71515 66.2712C1.88009 65.7991 1.18991 65.1061 0.719652 64.2677C0.247269 63.3865 0 62.4013 0 61.4006C0 60.3999 0.247269 59.4148 0.719652 58.5335C1.18851 57.694 1.87903 57.0007 2.71515 56.53ZM8.05902 62.9918C8.30548 62.4949 8.42975 61.9459 8.4214 61.3909C8.45637 60.5652 8.17053 59.7581 7.62416 59.1399C7.37144 58.8565 7.06034 58.6315 6.71244 58.4808C6.36454 58.33 5.98815 58.2569 5.60934 58.2667C5.22894 58.2571 4.85105 58.3312 4.50216 58.4837C4.15328 58.6362 3.84184 58.8635 3.58969 59.1496C3.07389 59.7818 2.79203 60.5737 2.79203 61.3909C2.79203 62.2081 3.07389 63 3.58969 63.6322C3.84072 63.9203 4.15172 64.1496 4.5007 64.3039C4.84968 64.4581 5.22814 64.5335 5.60934 64.5248C6.12122 64.5349 6.62494 64.395 7.05885 64.1221C7.48887 63.8442 7.83479 63.4533 8.05902 62.9918Z" fill="#1D2328"/>
<path d="M14.9772 53.3064V60.3794L18.3208 56.0522H21.703L17.4559 61.1508L22.1765 66.7442H18.6349L14.9772 62.1986V66.7442H12.1797V52.5156L14.9772 53.3064Z" fill="#1D2328"/>
<path d="M25.7621 64.8087C26.0992 64.8263 26.4344 64.7473 26.7284 64.5807C26.8432 64.5092 26.9365 64.4079 26.9986 64.2875C27.0607 64.1671 27.0892 64.032 27.0811 63.8967C27.0906 63.7004 27.0363 63.5063 26.9265 63.3436C26.7793 63.1647 26.5945 63.0206 26.3854 62.9216C25.9969 62.7204 25.5986 62.5391 25.1919 62.3782C24.3337 62.0802 23.5494 61.6004 22.892 60.9714C22.6299 60.7073 22.4234 60.393 22.2848 60.0471C22.1462 59.7012 22.0783 59.3309 22.0851 58.9581C22.0783 58.3949 22.2272 57.8407 22.5152 57.3573C22.8185 56.8689 23.252 56.4757 23.7666 56.2221C24.3675 55.9265 25.0303 55.7801 25.6993 55.7952C26.6367 55.7469 27.5667 55.9855 28.3664 56.4792C28.6876 56.6943 28.9623 56.9724 29.174 57.2966C29.3857 57.6209 29.5301 57.9847 29.5984 58.3663L27.5401 59.2541C27.4478 58.8679 27.226 58.5254 26.912 58.2838C26.5922 58.0517 26.2049 57.9323 25.8104 57.9442C25.5203 57.9254 25.2325 58.0057 24.9938 58.1723C24.9017 58.2422 24.8278 58.3334 24.7782 58.4381C24.7285 58.5428 24.7047 58.6579 24.7088 58.7738C24.7054 58.9044 24.7362 59.0336 24.7981 59.1485C24.86 59.2634 24.9508 59.36 25.0615 59.4287C25.527 59.6996 26.0114 59.9363 26.511 60.137C27.4029 60.4597 28.2235 60.954 28.9268 61.5924C29.1976 61.8657 29.4097 62.1918 29.5501 62.5505C29.6905 62.9093 29.7563 63.2931 29.7434 63.6784C29.7411 64.228 29.589 64.7665 29.3037 65.2356C28.9794 65.7602 28.5205 66.1875 27.975 66.4727C27.3112 66.8109 26.5738 66.9776 25.8297 66.9578C24.8988 66.9776 23.9812 66.7338 23.1819 66.2544C22.4717 65.8307 21.9522 65.1475 21.7324 64.3478L23.8584 63.4213C24.0127 63.8153 24.2717 64.1593 24.6073 64.4158C24.9412 64.666 25.3455 64.8035 25.7621 64.8087Z" fill="#1D2328"/>
<path d="M30.957 52.5156L33.7498 53.4859V66.7248H30.957V52.5156Z" fill="#1D2328"/>
<path d="M39.928 67.004C39.0369 67.0097 38.1619 66.7661 37.401 66.3006C36.6195 65.8191 35.9831 65.1332 35.5601 64.3164C35.112 63.4069 34.8789 62.4059 34.8789 61.3912C34.8789 60.3764 35.112 59.3754 35.5601 58.4659C35.9744 57.6575 36.6037 56.9803 37.3782 56.5093C38.1526 56.0383 39.0419 55.792 39.9473 55.7977C40.6161 55.7843 41.2785 55.9306 41.88 56.2246C42.445 56.5014 42.9244 56.9274 43.2667 57.4568H43.3295V56.0548L46.1416 57.0251V66.7275H43.3343V65.1266H43.2715C42.9214 65.7035 42.4352 66.1851 41.8558 66.5286C41.2649 66.8516 40.6007 67.0154 39.928 67.004ZM42.9285 63.0115C43.1782 62.5086 43.3041 61.953 43.2957 61.3912C43.3324 60.5715 43.0539 59.7691 42.5178 59.1499C42.26 58.8715 41.9478 58.6494 41.6008 58.4975C41.2537 58.3457 40.8791 58.2673 40.5005 58.2673C40.1219 58.2673 39.7474 58.3457 39.4003 58.4975C39.0532 58.6494 38.7411 58.8715 38.4833 59.1499C37.9402 59.7661 37.6546 60.5689 37.6861 61.3912C37.6761 61.9526 37.8004 62.5082 38.0484 63.0115C38.2747 63.4692 38.6225 63.8553 39.0534 64.1272C39.4896 64.3957 39.9913 64.5378 40.503 64.5378C41.0146 64.5378 41.5163 64.3957 41.9525 64.1272C42.3727 63.8512 42.7101 63.4655 42.9285 63.0115Z" fill="#1D2328"/>
<path d="M52.033 56.2414C52.6434 55.9366 53.3178 55.7836 53.9995 55.795C54.8957 55.7843 55.7768 56.0281 56.5409 56.4985C57.3105 56.9769 57.9328 57.6604 58.3383 58.4729C58.7904 59.3751 59.0175 60.3739 59.0003 61.3836C59.0155 62.3954 58.7814 63.3953 58.319 64.2944C57.9025 65.1086 57.2692 65.7909 56.4896 66.2654C55.7099 66.7399 54.8145 66.9879 53.9028 66.9819C53.2408 67.0136 52.5827 66.8626 52.0001 66.5453C51.4175 66.228 50.9326 65.7566 50.5979 65.1821H50.5351V66.7248H47.7617V52.5156L50.5544 53.3064V57.5754H50.6366C50.9648 57.0054 51.4496 56.5422 52.033 56.2414ZM55.8403 63.0088C56.0884 62.5055 56.2127 61.9499 56.2027 61.3885C56.2342 60.5662 55.9486 59.7635 55.4055 59.1472C55.1539 58.8617 54.8432 58.6348 54.4952 58.4823C54.1472 58.3298 53.7703 58.2554 53.3907 58.2643C53.0073 58.2538 52.6263 58.3274 52.2741 58.4799C51.922 58.6324 51.6072 58.8601 51.3517 59.1472C50.8326 59.7816 50.5489 60.5772 50.5489 61.3982C50.5489 62.2192 50.8326 63.0147 51.3517 63.6491C51.7869 64.1187 52.37 64.4233 53.0028 64.5117C53.6356 64.6001 54.2793 64.4668 54.8257 64.1343C55.2615 63.8611 55.6129 63.4713 55.8403 63.0088Z" fill="#1D2328"/>
</g>
<defs>
<clipPath id="clip0_905_2709">
<rect width="59" height="67" fill="white"/>
</clipPath>
</defs>
</svg>
