<svg width="150" height="39" viewBox="0 0 150 39" fill="none" xmlns="http://www.w3.org/2000/svg">
<path fill-rule="evenodd" clip-rule="evenodd" d="M50.2789 23.9246H50.6968V29.7943H50.2789V28.8207C49.9353 29.4666 49.2945 29.8879 48.4866 29.8879C47.2979 29.8879 46.332 28.9424 46.332 27.6973C46.332 26.4522 47.2979 25.5067 48.4866 25.5067C49.2945 25.5067 49.9353 25.928 50.2789 26.5739V23.9246ZM48.5144 29.4854C49.5081 29.4854 50.2789 28.699 50.2789 27.6973C50.2789 26.6956 49.5081 25.9093 48.5144 25.9093C47.5207 25.9093 46.7499 26.6956 46.7499 27.6973C46.7499 28.699 47.5207 29.4854 48.5144 29.4854ZM55.1823 25.5161C56.4453 25.5161 57.2347 26.5739 57.2347 27.7254C57.2347 27.7909 57.2254 27.8565 57.2254 27.9314H53.455C53.5571 28.8769 54.2722 29.4947 55.2195 29.4947C55.9067 29.4947 56.4175 29.1764 56.6589 28.7271L57.0211 28.9424C56.6775 29.5134 56.0274 29.8879 55.2102 29.8879C53.9286 29.8879 53.0185 28.9611 53.0185 27.6973C53.0185 26.471 53.9008 25.5161 55.1823 25.5161ZM55.1823 25.9186C54.2351 25.9186 53.5386 26.5833 53.455 27.5101H56.7982C56.7054 26.4897 55.9903 25.9186 55.1823 25.9186ZM59.6493 26.705C59.6493 26.1995 60.1043 25.9186 60.6522 25.9186C61.1073 25.9186 61.5438 26.1246 61.7202 26.5552L62.0731 26.3586C61.8502 25.8437 61.3302 25.5161 60.6615 25.5161C59.8164 25.5161 59.2499 26.0403 59.2499 26.705C59.2499 28.2122 61.7759 27.5569 61.7759 28.699C61.7759 29.2232 61.2837 29.4854 60.6987 29.4854C60.0765 29.4854 59.6214 29.2045 59.4728 28.7458L59.1106 28.9518C59.3149 29.4854 59.8629 29.8785 60.6894 29.8785C61.5809 29.8785 62.1753 29.373 62.1753 28.6896C62.1753 27.1637 59.6493 27.8284 59.6493 26.705ZM64.6734 24.5893C64.8591 24.5893 65.0077 24.4395 65.0077 24.2523C65.0077 24.0744 64.8591 23.9246 64.6734 23.9246C64.4877 23.9246 64.3391 24.0744 64.3391 24.2523C64.3484 24.4395 64.497 24.5893 64.6734 24.5893ZM64.4691 29.7943H64.887V25.6003H64.4691V29.7943ZM71.1927 25.6097H71.6106V29.5977C71.6106 30.8521 70.6912 31.5636 69.5397 31.5636C68.5646 31.5636 67.8774 31.1704 67.5709 30.5619L67.9331 30.356C68.1467 30.796 68.6203 31.1704 69.5304 31.1704C70.5705 31.1704 71.1834 30.5619 71.1834 29.5977V28.8301C70.8398 29.476 70.199 29.8973 69.3911 29.8973C68.2024 29.8973 67.2366 28.9518 67.2366 27.7067C67.2366 26.4616 68.2024 25.5161 69.3911 25.5161C70.199 25.5161 70.8398 25.9374 71.1834 26.5833V25.6097H71.1927ZM69.4282 29.4854C70.4219 29.4854 71.1927 28.699 71.1927 27.6973C71.1927 26.6956 70.4219 25.9093 69.4282 25.9093C68.4346 25.9093 67.6638 26.6956 67.6638 27.6973C67.6638 28.699 68.4346 29.4854 69.4282 29.4854ZM76.124 25.5161C75.4832 25.5161 74.9539 25.7876 74.6381 26.4054V25.6097H74.2202V29.8037H74.6381V27.5943C74.6381 26.4616 75.2789 25.928 76.0961 25.928C76.8762 25.928 77.322 26.4335 77.322 27.2012V29.813H77.7492V27.2012C77.7399 26.1714 77.1177 25.5161 76.124 25.5161ZM80.9438 29.2326H80.4238L80.108 30.9738H80.4888L80.9438 29.2326ZM88.884 29.8879C89.7013 29.8879 90.3978 29.4666 90.7321 28.8207L90.3792 28.6147C90.1006 29.139 89.5527 29.4854 88.884 29.4854C87.8811 29.4854 87.1195 28.699 87.1195 27.6973C87.1195 26.6956 87.8811 25.9093 88.884 25.9093C89.5527 25.9093 90.1192 26.2556 90.3606 26.7799L90.7042 26.5833C90.4071 25.928 89.7013 25.5067 88.8933 25.5067C87.6396 25.5067 86.7016 26.4522 86.7016 27.6973C86.6924 28.9424 87.621 29.8879 88.884 29.8879ZM94.8369 29.8879C93.6203 29.8879 92.6452 28.9424 92.6452 27.6973C92.6452 26.4522 93.6203 25.5067 94.8369 25.5067C96.0441 25.5067 97.0193 26.4522 97.0193 27.6973C97.0193 28.9424 96.0441 29.8879 94.8369 29.8879ZM94.8369 29.4854C95.8305 29.4854 96.5921 28.699 96.5921 27.6973C96.5921 26.6956 95.8305 25.9093 94.8369 25.9093C93.8432 25.9093 93.0724 26.6956 93.0724 27.6973C93.0724 28.699 93.8525 29.4854 94.8369 29.4854ZM103.019 23.9246H103.436V29.7943H103.019V28.8207C102.675 29.4666 102.034 29.8879 101.226 29.8879C100.037 29.8879 99.0716 28.9424 99.0716 27.6973C99.0716 26.4522 100.037 25.5067 101.226 25.5067C102.034 25.5067 102.675 25.928 103.019 26.5739V23.9246ZM101.254 29.4854C102.248 29.4854 103.019 28.699 103.019 27.6973C103.019 26.6956 102.248 25.9093 101.254 25.9093C100.26 25.9093 99.4895 26.6956 99.4895 27.6973C99.4895 28.699 100.26 29.4854 101.254 29.4854ZM107.913 25.5161C109.176 25.5161 109.965 26.5739 109.965 27.7254C109.965 27.7909 109.956 27.8565 109.956 27.9314H106.185C106.287 28.8769 107.003 29.4947 107.95 29.4947C108.628 29.4947 109.148 29.1764 109.389 28.7271L109.751 28.9424C109.408 29.5134 108.758 29.8879 107.941 29.8879C106.659 29.8879 105.749 28.9611 105.749 27.6973C105.758 26.471 106.64 25.5161 107.913 25.5161ZM107.913 25.9186C106.965 25.9186 106.269 26.5833 106.185 27.5101H109.529C109.445 26.4897 108.73 25.9186 107.913 25.9186ZM112.649 29.2326H112.129L111.813 30.9738H112.194L112.649 29.2326ZM120.552 25.5161C121.815 25.5161 122.604 26.5739 122.604 27.7254C122.604 27.7909 122.595 27.8565 122.595 27.9314H118.825C118.927 28.8769 119.642 29.4947 120.589 29.4947C121.276 29.4947 121.787 29.1764 122.029 28.7271L122.391 28.9424C122.047 29.5134 121.397 29.8879 120.58 29.8879C119.298 29.8879 118.388 28.9611 118.388 27.6973C118.397 26.471 119.28 25.5161 120.552 25.5161ZM120.552 25.9186C119.605 25.9186 118.908 26.5833 118.825 27.5101H122.168C122.084 26.4897 121.369 25.9186 120.552 25.9186ZM127.796 25.6097L126.226 29.3637L124.666 25.6097H124.22L125.985 29.8037H126.495L128.251 25.6097H127.796ZM132.068 29.8879C130.851 29.8879 129.876 28.9424 129.876 27.6973C129.876 26.4522 130.851 25.5067 132.068 25.5067C133.275 25.5067 134.25 26.4522 134.25 27.6973C134.241 28.9424 133.275 29.8879 132.068 29.8879ZM132.068 29.4854C133.061 29.4854 133.823 28.699 133.823 27.6973C133.823 26.6956 133.061 25.9093 132.068 25.9093C131.074 25.9093 130.303 26.6956 130.303 27.6973C130.303 28.699 131.074 29.4854 132.068 29.4854ZM136.572 29.7943H136.99V23.6719H136.572V29.7943ZM142.654 25.6097L141.085 29.3637L139.516 25.6097H139.07L140.834 29.8037H141.345L143.1 25.6097H142.654ZM147.056 25.5161C148.319 25.5161 149.109 26.5739 149.109 27.7254C149.109 27.7909 149.099 27.8565 149.099 27.9314H145.329C145.431 28.8769 146.146 29.4947 147.094 29.4947C147.781 29.4947 148.292 29.1764 148.533 28.7271L148.895 28.9424C148.552 29.5134 147.902 29.8879 147.084 29.8879C145.803 29.8879 144.893 28.9611 144.893 27.6973C144.902 26.471 145.784 25.5161 147.056 25.5161ZM147.056 25.9186C146.109 25.9186 145.413 26.5833 145.329 27.5101H148.672C148.589 26.4897 147.874 25.9186 147.056 25.9186Z" fill="#1D2328"/>
<path fill-rule="evenodd" clip-rule="evenodd" d="M53.2141 11.2029H45.8125V13.3092H48.3756V20.7797H50.6509V13.3092H53.2141V11.2029ZM56.483 18.6733V16.9789H60.0398V14.9006H56.483V13.3092H60.3927V11.2029H54.2077V20.7797H60.467V18.6733H56.483ZM66.5034 20.9763C68.3236 20.9763 69.921 20.115 70.7754 18.7576L68.8158 17.6623C68.3886 18.4018 67.525 18.8418 66.5127 18.8418C64.7482 18.8418 63.606 17.7091 63.606 15.9959C63.606 14.2828 64.7482 13.15 66.5127 13.15C67.525 13.15 68.3794 13.59 68.8158 14.3296L70.7754 13.2343C69.9117 11.8769 68.3144 11.0156 66.5034 11.0156C63.5038 11.0156 61.3214 13.1781 61.3214 15.9959C61.3214 18.8138 63.4945 20.9763 66.5034 20.9763ZM77.3875 11.2029V14.8726H74.2579V11.2029H71.9733V20.7797H74.2486V16.9695H77.3782V20.7797H79.6535V11.2029H77.3875ZM86.9158 11.2029V16.4078L83.071 11.2029H81.3623V20.7797H83.6375V15.5747L87.4823 20.7797H89.191V11.2029H86.9158ZM95.6546 20.9763C92.7943 20.9763 90.4726 18.8138 90.4726 15.9959C90.4726 13.1781 92.7943 11.0156 95.6546 11.0156C98.5149 11.0156 100.837 13.1781 100.837 15.9959C100.827 18.8138 98.5149 20.9763 95.6546 20.9763ZM95.6546 18.8418C97.2798 18.8418 98.5614 17.7091 98.5614 15.9959C98.5614 14.2828 97.2798 13.15 95.6546 13.15C94.0294 13.15 92.7479 14.2828 92.7479 15.9959C92.7479 17.6997 94.0294 18.8418 95.6546 18.8418ZM104.384 18.6733V11.2029H102.109V20.7797H107.941V18.6733H104.384ZM113.69 20.9763C110.829 20.9763 108.508 18.8138 108.508 15.9959C108.508 13.1781 110.829 11.0156 113.69 11.0156C116.55 11.0156 118.872 13.1781 118.872 15.9959C118.872 18.8138 116.55 20.9763 113.69 20.9763ZM113.69 18.8418C115.315 18.8418 116.596 17.7091 116.596 15.9959C116.596 14.2828 115.315 13.15 113.69 13.15C112.064 13.15 110.783 14.2828 110.783 15.9959C110.792 17.6997 112.074 18.8418 113.69 18.8418ZM130.016 15.4436H125.019V17.3627H127.675C127.323 18.2801 126.45 18.8418 125.131 18.8418C123.199 18.8418 122.001 17.6529 122.001 16.024C122.001 14.339 123.255 13.15 124.936 13.15C126.06 13.15 126.96 13.6462 127.369 14.2734L129.301 13.2062C128.465 11.9237 126.858 11.0156 124.945 11.0156C122.01 11.0156 119.726 13.2343 119.726 16.0147C119.726 18.7669 121.973 20.9856 125.103 20.9856C127.889 20.9856 130.016 19.2069 130.016 16.2768V15.4436ZM131.297 11.2029V20.7797H133.573V11.2029H131.297ZM137.557 18.6733V16.9789H141.113V14.9006H137.557V13.3092H141.466V11.2029H135.281V20.7797H141.541V18.6733H137.557ZM146.305 20.9763C148.469 20.9763 150.001 19.881 150.001 18.0367C150.001 16.0147 148.311 15.4998 146.797 15.0692C145.246 14.6198 145.005 14.3202 145.005 13.8802C145.005 13.4964 145.357 13.1594 146.073 13.1594C146.983 13.1594 147.456 13.5807 147.791 14.2641L149.713 13.1781C148.989 11.7645 147.707 11.0156 146.073 11.0156C144.354 11.0156 142.729 12.0828 142.729 13.9271C142.729 15.7619 144.178 16.4453 145.664 16.8385C147.159 17.2317 147.726 17.4657 147.726 18.0555C147.726 18.4206 147.456 18.8325 146.37 18.8325C145.246 18.8325 144.633 18.2989 144.28 17.5031L142.321 18.5984C142.878 20.012 144.215 20.9763 146.305 20.9763Z" fill="#1D2328"/>
<path fill-rule="evenodd" clip-rule="evenodd" d="M19.3444 0C8.69242 0 0 8.76236 0 19.5C0 30.2376 8.69242 39 19.3444 39C29.9963 39 38.6887 30.2376 38.6887 19.5C38.6887 8.76236 29.9963 0 19.3444 0ZM17.3941 11.73H18.6943V16.7945H17.3941V11.73ZM12.6579 13.1623H12.4814C12.1192 13.1623 11.8314 13.4431 11.8314 13.7708V24.8735C11.8314 25.2199 12.1192 25.482 12.4814 25.482H12.6579V26.9143H12.4814C11.302 26.9143 10.2897 26.0062 10.2897 24.8735V13.7708C10.2897 12.6474 11.2927 11.73 12.4814 11.73H12.6579V13.1623ZM16.094 24.8735C16.094 25.9969 15.1189 26.9143 13.893 26.9143H13.7259V25.482H13.893C14.2366 25.482 14.5524 25.2199 14.5524 24.8735V13.7708C14.5524 13.4431 14.2459 13.1623 13.893 13.1623H13.7259V11.73H13.893C15.1096 11.73 16.094 12.638 16.094 13.7708V24.8735ZM21.4617 27.1483L19.753 20.5204H21.2389L22.9476 27.1483H21.4617ZM20.6445 18.4983L20.9045 19.3877H18.8707V26.9143H17.3941V18.0677H19.4186L21.4339 11.7393H22.9569L20.6445 18.4983ZM28.3897 25.2012C28.3897 26.3433 27.4796 27.27 26.393 27.27H25.4179C24.3128 27.27 23.4212 26.3433 23.4212 25.2012V22.8421H24.8235V25.2012C24.8235 25.5569 25.1022 25.819 25.4179 25.819H26.393C26.7088 25.819 26.9874 25.5569 26.9874 25.2012V22.5799C26.9874 22.0276 26.8852 21.5221 26.5323 21.1008L26.4487 20.9885V18.7136L27.6653 20.2396C28.1854 20.9042 28.3897 21.7187 28.3897 22.5706V25.2012ZM28.3897 15.4839H26.9874V13.7801C26.9874 13.4525 26.7088 13.1716 26.393 13.1716H25.4179C25.1022 13.1716 24.8235 13.4525 24.8235 13.7801V15.5494C24.8235 16.0924 24.9257 16.5792 25.2693 17.0098L25.3715 17.1409V19.4345L24.127 17.8617C23.6163 17.2064 23.4305 16.4013 23.4305 15.5494V13.7801C23.4305 12.6661 24.3406 11.73 25.4272 11.73H26.4023C27.4889 11.73 28.399 12.6474 28.399 13.7801V15.4839H28.3897Z" fill="#1D2328"/>
</svg>
