<svg width="151" height="150" viewBox="0 0 151 150" fill="none" xmlns="http://www.w3.org/2000/svg">
<circle cx="72" cy="73" r="38" fill="#292FCF"/>
<g filter="url(#filter0_bd_905_2610)">
<circle cx="92" cy="73" r="38" fill="white" fill-opacity="0.15" shape-rendering="crispEdges"/>
<circle cx="92" cy="73" r="37.7707" stroke="url(#paint0_linear_905_2610)" stroke-width="0.458647" shape-rendering="crispEdges"/>
</g>
<g clip-path="url(#clip0_905_2610)">
<g filter="url(#filter1_d_905_2610)">
<path d="M92 88C83.7155 88 77 81.2845 77 73C77 64.7155 83.7155 58 92 58C100.285 58 107 64.7155 107 73C107 81.2845 100.285 88 92 88ZM92 85C95.1826 85 98.2348 83.7357 100.485 81.4853C102.736 79.2348 104 76.1826 104 73C104 69.8174 102.736 66.7652 100.485 64.5147C98.2348 62.2643 95.1826 61 92 61C88.8174 61 85.7652 62.2643 83.5147 64.5147C81.2643 66.7652 80 69.8174 80 73C80 76.1826 81.2643 79.2348 83.5147 81.4853C85.7652 83.7357 88.8174 85 92 85ZM93.5 71.5H98L90.5 82V74.5H86L93.5 64V71.5Z" fill="white"/>
</g>
</g>
<defs>
<filter id="filter0_bd_905_2610" x="0.796995" y="0.14286" width="153.803" height="149.383" filterUnits="userSpaceOnUse" color-interpolation-filters="sRGB">
<feFlood flood-opacity="0" result="BackgroundImageFix"/>
<feGaussianBlur in="BackgroundImageFix" stdDeviation="12.3001"/>
<feComposite in2="SourceAlpha" operator="in" result="effect1_backgroundBlur_905_2610"/>
<feColorMatrix in="SourceAlpha" type="matrix" values="0 0 0 0 0 0 0 0 0 0 0 0 0 0 0 0 0 0 127 0" result="hardAlpha"/>
<feOffset dx="-16.5113" dy="1.83459"/>
<feGaussianBlur stdDeviation="18.3459"/>
<feComposite in2="hardAlpha" operator="out"/>
<feColorMatrix type="matrix" values="0 0 0 0 0.258494 0 0 0 0 0.5625 0 0 0 0 0.01875 0 0 0 0.16 0"/>
<feBlend mode="normal" in2="effect1_backgroundBlur_905_2610" result="effect2_dropShadow_905_2610"/>
<feBlend mode="normal" in="SourceGraphic" in2="effect2_dropShadow_905_2610" result="shape"/>
</filter>
<filter id="filter1_d_905_2610" x="76.0827" y="58" width="31.8346" height="31.8346" filterUnits="userSpaceOnUse" color-interpolation-filters="sRGB">
<feFlood flood-opacity="0" result="BackgroundImageFix"/>
<feColorMatrix in="SourceAlpha" type="matrix" values="0 0 0 0 0 0 0 0 0 0 0 0 0 0 0 0 0 0 127 0" result="hardAlpha"/>
<feOffset dy="0.917293"/>
<feGaussianBlur stdDeviation="0.458647"/>
<feComposite in2="hardAlpha" operator="out"/>
<feColorMatrix type="matrix" values="0 0 0 0 0.4625 0 0 0 0 0.367957 0 0 0 0 0.0327604 0 0 0 0.49 0"/>
<feBlend mode="normal" in2="BackgroundImageFix" result="effect1_dropShadow_905_2610"/>
<feBlend mode="normal" in="SourceGraphic" in2="effect1_dropShadow_905_2610" result="shape"/>
</filter>
<linearGradient id="paint0_linear_905_2610" x1="118.643" y1="96.7961" x2="63.7496" y2="45.1478" gradientUnits="userSpaceOnUse">
<stop stop-color="white" stop-opacity="0.18"/>
<stop offset="1" stop-color="#AAFF68" stop-opacity="0.31"/>
</linearGradient>
<clipPath id="clip0_905_2610">
<rect width="36" height="36" fill="white" transform="translate(74 55)"/>
</clipPath>
</defs>
</svg>
