<svg width="151" height="150" viewBox="0 0 151 150" fill="none" xmlns="http://www.w3.org/2000/svg">
<circle cx="72" cy="73" r="38" fill="#2B36BE"/>
<g filter="url(#filter0_bd_905_2641)">
<circle cx="92" cy="73" r="38" fill="white" fill-opacity="0.15" shape-rendering="crispEdges"/>
<circle cx="92" cy="73" r="37.7707" stroke="url(#paint0_linear_905_2641)" stroke-width="0.458647" shape-rendering="crispEdges"/>
</g>
<g clip-path="url(#clip0_905_2641)">
<g filter="url(#filter1_d_905_2641)">
<path d="M92 56.5L104.325 59.239C105.011 59.392 105.5 59.9995 105.5 60.703V75.6835C105.5 78.6925 103.995 81.5035 101.492 83.1715L92 89.5L82.508 83.1715C80.003 81.502 78.5 78.6925 78.5 75.685V60.703C78.5 59.9995 78.989 59.392 79.6745 59.239L92 56.5ZM92 59.5735L81.5 61.906V75.6835C81.5 77.689 82.502 79.5625 84.1715 80.6755L92 85.8955L99.8285 80.6755C101.498 79.5625 102.5 77.6905 102.5 75.685V61.906L92 59.5735ZM98.678 67.333L100.801 69.454L91.2545 79L84.89 72.6355L87.011 70.5145L91.253 74.7565L98.678 67.3315V67.333Z" fill="white"/>
</g>
</g>
<defs>
<filter id="filter0_bd_905_2641" x="0.796995" y="0.14286" width="153.803" height="149.383" filterUnits="userSpaceOnUse" color-interpolation-filters="sRGB">
<feFlood flood-opacity="0" result="BackgroundImageFix"/>
<feGaussianBlur in="BackgroundImageFix" stdDeviation="12.3001"/>
<feComposite in2="SourceAlpha" operator="in" result="effect1_backgroundBlur_905_2641"/>
<feColorMatrix in="SourceAlpha" type="matrix" values="0 0 0 0 0 0 0 0 0 0 0 0 0 0 0 0 0 0 127 0" result="hardAlpha"/>
<feOffset dx="-16.5113" dy="1.83459"/>
<feGaussianBlur stdDeviation="18.3459"/>
<feComposite in2="hardAlpha" operator="out"/>
<feColorMatrix type="matrix" values="0 0 0 0 0.258494 0 0 0 0 0.5625 0 0 0 0 0.01875 0 0 0 0.16 0"/>
<feBlend mode="normal" in2="effect1_backgroundBlur_905_2641" result="effect2_dropShadow_905_2641"/>
<feBlend mode="normal" in="SourceGraphic" in2="effect2_dropShadow_905_2641" result="shape"/>
</filter>
<filter id="filter1_d_905_2641" x="77.5827" y="56.5" width="28.8346" height="34.8346" filterUnits="userSpaceOnUse" color-interpolation-filters="sRGB">
<feFlood flood-opacity="0" result="BackgroundImageFix"/>
<feColorMatrix in="SourceAlpha" type="matrix" values="0 0 0 0 0 0 0 0 0 0 0 0 0 0 0 0 0 0 127 0" result="hardAlpha"/>
<feOffset dy="0.917293"/>
<feGaussianBlur stdDeviation="0.458647"/>
<feComposite in2="hardAlpha" operator="out"/>
<feColorMatrix type="matrix" values="0 0 0 0 0.4625 0 0 0 0 0.367957 0 0 0 0 0.0327604 0 0 0 0.49 0"/>
<feBlend mode="normal" in2="BackgroundImageFix" result="effect1_dropShadow_905_2641"/>
<feBlend mode="normal" in="SourceGraphic" in2="effect1_dropShadow_905_2641" result="shape"/>
</filter>
<linearGradient id="paint0_linear_905_2641" x1="118.643" y1="96.7961" x2="63.7496" y2="45.1478" gradientUnits="userSpaceOnUse">
<stop stop-color="white" stop-opacity="0.18"/>
<stop offset="1" stop-color="#AAFF68" stop-opacity="0.31"/>
</linearGradient>
<clipPath id="clip0_905_2641">
<rect width="36" height="36" fill="white" transform="translate(74 55)"/>
</clipPath>
</defs>
</svg>
